<svg xmlns="http://www.w3.org/2000/svg" viewBox="0 0 500 500"><path d="M359.37 131.38c-36.62-32-86.19 0-134.35 67.34s-71.06 39-112 68.68-51.89 151.26 92.35 139.44 249.73-191.92 154-275.46z" style="fill:#f0f0f0"/><path d="m318.89 377.32-99.89-.46A21.77 21.77 0 0 1 197.35 355l1.06-250.41a21.75 21.75 0 0 1 21.86-21.66l99.88.46a21.77 21.77 0 0 1 21.66 21.85l-1.06 250.4a21.77 21.77 0 0 1-21.86 21.68z" style="fill:#455a64"/><path d="M320 92h-19.36a4.81 4.81 0 0 0-4.72 4.9v3.51a4.8 4.8 0 0 1-4.72 4.89l-37.74-.17a4.82 4.82 0 0 1-4.69-4.94v-3.51a4.82 4.82 0 0 0-4.68-4.94h-6.81l-16.95-.08A15.24 15.24 0 0 0 205 106.75l-1 244.42a15.23 15.23 0 0 0 15.16 15.3l99.68.46a15.24 15.24 0 0 0 15.31-15.17l1-244.42A15.25 15.25 0 0 0 320 92z" style="fill:#fff"/><path d="m306.59 334.32-74.12-.32c-.77 0-1.39-.84-1.38-1.86l.08-19.39c0-1 .63-1.86 1.4-1.86l74.12.34a1.68 1.68 0 0 1 1.38 1.87l-.07 19.37c0 1.03-.64 1.86-1.41 1.85z" style="fill:#2fe745"/><text transform="matrix(.96 0 0 1 252.59 324.95)" style="font-size:8.298959732055664px;fill:#e8e8e3;font-family:Montserrat-Regular,Montserrat">SING UP</text><path transform="rotate(.26 238.382 169.143)" style="fill:#2fe745" d="M221.51 163.81h25.72v4.72h-25.72z"/><path transform="rotate(.26 238.382 169.143)" style="opacity:.1" d="M221.51 163.81h25.72v4.72h-25.72z"/><path d="M322.65 192.83a2.3 2.3 0 0 0 .59-.14 1.58 1.58 0 0 0 1-1.35V178.06a1.94 1.94 0 0 0-.28-1.31 1.5 1.5 0 0 0-1.19-.61H306.76l-83.64-.31a1.33 1.33 0 0 0-1.1.55 1.91 1.91 0 0 0-.26 1.31v12a7.89 7.89 0 0 0 0 1.4 1.35 1.35 0 0 0 .78.9 1.56 1.56 0 0 0 .62.11h5.09l22.21.12 37.6.23 25.35.2 6.89.08h2.4-34.64l-37.6-.12-22.21-.09h-5.09a2 2 0 0 1-.82-.14 1.88 1.88 0 0 1-1.08-1.25 2.83 2.83 0 0 1-.06-.8v-12.74a5.6 5.6 0 0 1 0-.8 1.7 1.7 0 0 1 .33-.81 1.84 1.84 0 0 1 1.52-.77l83.64.46 14.45.1h1.56a1.71 1.71 0 0 1 1.4.73 2.13 2.13 0 0 1 .32 1.47v6.39c0 3-.07 5.3-.09 6.9a1.62 1.62 0 0 1-1.05 1.39 1.2 1.2 0 0 1-.63.18z" style="fill:#e0e0e0"/><path transform="translate(.85 -1.16)" style="fill:#2fe745" d="M228.41 182.01h47.04v4.41h-47.04z"/><path transform="translate(.85 -1.16)" style="fill:#fff;opacity:.2" d="M228.41 182.01h47.04v4.41h-47.04z"/><path transform="rotate(.26 238.482 213.217)" style="fill:#2fe745" d="M221.33 206.87h25.72v4.72h-25.72z"/><path transform="rotate(.26 238.482 213.217)" style="opacity:.1" d="M221.33 206.87h25.72v4.72h-25.72z"/><path d="M322 235.89a5.17 5.17 0 0 0 .6-.11 2.05 2.05 0 0 0 1.26-1.14 2.8 2.8 0 0 0 .18-1.27v-11.93a2.15 2.15 0 0 0-.29-1.32 1.94 1.94 0 0 0-1.09-.85 6.13 6.13 0 0 0-1.51-.08h-14.39l-83.35-.31a1.85 1.85 0 0 0-1.83 1.61v12a5.74 5.74 0 0 0 .06 1.4 1.9 1.9 0 0 0 .73 1 2.08 2.08 0 0 0 1.24.32h4.28l22.13.11 37.47.23 25.26.2 6.87.08h2.39-34.52l-37.49-.04-22.13-.08h-4.35a2.51 2.51 0 0 1-1.53-.41 2.4 2.4 0 0 1-.94-1.31 6.3 6.3 0 0 1-.08-1.54v-12a2.37 2.37 0 0 1 2.35-2.07l83.35.46 14.39.11a6.19 6.19 0 0 1 1.6.11 2.21 2.21 0 0 1 1.23 1 2.41 2.41 0 0 1 .32 1.46v11.98a2.79 2.79 0 0 1-.21 1.31 2.12 2.12 0 0 1-1.35 1.14 1.88 1.88 0 0 1-.65-.06z" style="fill:#e0e0e0"/><path transform="rotate(.26 236.379 257.296)" style="fill:#2fe745" d="M221.14 251.79h25.72v4.72h-25.72z"/><path transform="rotate(.26 236.379 257.296)" style="opacity:.1" d="M221.14 251.79h25.72v4.72h-25.72z"/><path d="M321.8 280.8a4.78 4.78 0 0 0 .6-.11 2.06 2.06 0 0 0 1.26-1.13 2.82 2.82 0 0 0 .18-1.27v-11.94a2.15 2.15 0 0 0-.29-1.32 2 2 0 0 0-1.09-.84 6.11 6.11 0 0 0-1.51-.09h-14.39l-83.35-.31a1.85 1.85 0 0 0-1.83 1.61v12a5.66 5.66 0 0 0 .06 1.39 1.83 1.83 0 0 0 .73 1 2 2 0 0 0 1.24.32h4.35l22.13.12 37.47.23 25.26.2 6.87.08h2.39-34.52l-37.47-.11-22.13-.09h-4.35a2.45 2.45 0 0 1-1.53-.41 2.4 2.4 0 0 1-.94-1.31 6.3 6.3 0 0 1-.08-1.54v-12.05a2.36 2.36 0 0 1 2.34-2.07l83.35.46 14.39.11a6.19 6.19 0 0 1 1.6.11 2.21 2.21 0 0 1 1.23 1 2.41 2.41 0 0 1 .32 1.46v11.98a2.74 2.74 0 0 1-.21 1.31 2.12 2.12 0 0 1-1.35 1.14 1.58 1.58 0 0 1-.73.07z" style="fill:#e0e0e0"/><path transform="rotate(.26 256.152 230.806)" style="fill:#2fe745" d="M228.23 225.07h47.04v4.41h-47.04z"/><path transform="rotate(.26 256.152 230.806)" style="fill:#fff;opacity:.2" d="M228.23 225.07h47.04v4.41h-47.04z"/><path d="M232.51 272.64a2.06 2.06 0 1 1-2-2.21 2.12 2.12 0 0 1 2 2.21zM238.88 272.67a2.06 2.06 0 1 1-4.11 0 2.06 2.06 0 1 1 4.11 0zM245.26 272.7a2.06 2.06 0 1 1-2-2.21 2.13 2.13 0 0 1 2 2.21zM251.63 272.73a2.06 2.06 0 1 1-2-2.21 2.13 2.13 0 0 1 2 2.21zM258 272.75a2.06 2.06 0 1 1-2-2.2 2.13 2.13 0 0 1 2 2.2zM264.38 272.78a2.06 2.06 0 1 1-2.05-2.2 2.13 2.13 0 0 1 2.05 2.2zM270.75 272.81a2.06 2.06 0 1 1-4.11 0 2.06 2.06 0 1 1 4.11 0zM277.12 272.84a2.06 2.06 0 1 1-2.05-2.2 2.13 2.13 0 0 1 2.05 2.2zM283.49 272.87a2.06 2.06 0 1 1-2-2.2 2.13 2.13 0 0 1 2 2.2z" style="fill:#2fe745"/><g style="opacity:.2"><path d="M232.51 272.64a2.06 2.06 0 1 1-2-2.21 2.12 2.12 0 0 1 2 2.21zM238.88 272.67a2.06 2.06 0 1 1-4.11 0 2.06 2.06 0 1 1 4.11 0zM245.26 272.7a2.06 2.06 0 1 1-2-2.21 2.13 2.13 0 0 1 2 2.21zM251.63 272.73a2.06 2.06 0 1 1-2-2.21 2.13 2.13 0 0 1 2 2.21zM258 272.75a2.06 2.06 0 1 1-2-2.2 2.13 2.13 0 0 1 2 2.2zM264.38 272.78a2.06 2.06 0 1 1-2.05-2.2 2.13 2.13 0 0 1 2.05 2.2zM270.75 272.81a2.06 2.06 0 1 1-4.11 0 2.06 2.06 0 1 1 4.11 0zM277.12 272.84a2.06 2.06 0 1 1-2.05-2.2 2.13 2.13 0 0 1 2.05 2.2zM283.49 272.87a2.06 2.06 0 1 1-2-2.2 2.13 2.13 0 0 1 2 2.2z" style="fill:#fff"/></g><path d="M274.44 128.51a3.87 3.87 0 0 0 2.31-3.59 3.64 3.64 0 1 0-7.27 0 3.88 3.88 0 0 0 2.32 3.63c-5.6.84-5.35 6.92-5.35 6.92l13.24.06s.31-6.19-5.25-7.02z" style="fill:#2fe745"/><path d="M274.44 128.51a3.87 3.87 0 0 0 2.31-3.59 3.64 3.64 0 1 0-7.27 0 3.88 3.88 0 0 0 2.32 3.63c-5.6.84-5.35 6.92-5.35 6.92l13.24.06s.31-6.19-5.25-7.02z" style="opacity:.1"/><path transform="rotate(.26 277.994 144.813)" style="fill:#2fe745" d="M248.74 139.37h47.19v5.64h-47.19z"/><path transform="rotate(.26 277.994 144.813)" style="fill:#fff;opacity:.2" d="M248.74 139.37h47.19v5.64h-47.19z"/></svg>