<svg xmlns="http://www.w3.org/2000/svg" width="306.781" height="262.994" viewBox="0 0 306.781 262.994">
  <g id="Account-rafiki" transform="translate(-56.11 -95.128)">
    <g id="freepik--background-simple--inject-2" transform="translate(62.915 95.128)">
      <path id="Path_2248" data-name="Path 2248" d="M238.907,172.216c-45.189-30.6-113.589-128.043-166.215-43.172C34.877,189.961,141.267,252.966,186.369,272.7c57.689,25.245,160.859,15.87,175.1-61.375,5.7-30.925-8.868-43.314-36.661-37.665C292.2,180.286,272.214,194.756,238.907,172.216Z" transform="translate(-64.712 -95.128)" fill="#f3f3f4"/>
      <path id="Path_2249" data-name="Path 2249" d="M238.907,172.216c-45.189-30.6-113.589-128.043-166.215-43.172C34.877,189.961,141.267,252.966,186.369,272.7c57.689,25.245,160.859,15.87,175.1-61.375,5.7-30.925-8.868-43.314-36.661-37.665C292.2,180.286,272.214,194.756,238.907,172.216Z" transform="translate(-64.712 -95.128)" fill="#f3f3f4" opacity="0.9"/>
    </g>
    <g id="freepik--Shadow--inject-2" transform="translate(56.11 340.211)">
      <ellipse id="freepik--path--inject-2" cx="153.391" cy="8.955" rx="153.391" ry="8.955" fill="#f5f5f5"/>
    </g>
    <g id="freepik--Account--inject-2" transform="translate(116.032 106.632)">
      <path id="Path_2250" data-name="Path 2250" d="M255.883,109.67H140.909a9,9,0,0,0-9.043,9.493l10.783,223.547A10.1,10.1,0,0,0,152.6,352.2H267.575a8.987,8.987,0,0,0,9.035-9.493L265.835,119.163a10.1,10.1,0,0,0-9.952-9.493Z" transform="translate(-131.852 -109.67)"/>
      <path id="Path_2251" data-name="Path 2251" d="M261.246,109.67H146.241a8.987,8.987,0,0,0-9.035,9.493l10.775,223.547a10.1,10.1,0,0,0,9.952,9.493H272.907a8.987,8.987,0,0,0,9.035-9.493L271.167,119.163a10.1,10.1,0,0,0-9.921-9.493Z" transform="translate(-132.968 -109.67)" fill="#263238"/>
      <path id="Path_2252" data-name="Path 2252" d="M159.283,347.546a3.41,3.41,0,0,1-3.315-3.164L145.209,120.834a3.022,3.022,0,0,1,3.014-3.164H263.2a3.394,3.394,0,0,1,3.315,3.164l10.775,223.547a3.022,3.022,0,0,1-3.006,3.164Z" transform="translate(-134.642 -111.341)" fill="#00c736"/>
      <path id="Path_2253" data-name="Path 2253" d="M159.646,346.382a1.725,1.725,0,0,1-1.661-1.582L147.21,121.252a1.527,1.527,0,0,1,1.5-1.582H263.687a1.717,1.717,0,0,1,1.661,1.582L276.123,344.8a1.527,1.527,0,0,1-1.5,1.582Z" transform="translate(-135.06 -111.759)" opacity="0.1"/>
      <g id="Group_2894" data-name="Group 2894" transform="translate(32.405 182.496)" opacity="0.3">
        <path id="Path_2254" data-name="Path 2254" d="M199.693,379.629H176.917a2.468,2.468,0,0,1-2.437-2.326l-1.661-34.58a2.223,2.223,0,0,1,2.239-2.373h22.816a2.453,2.453,0,0,1,2.429,2.318l1.638,34.588a2.231,2.231,0,0,1-2.247,2.373Zm-24.667-38.472a1.472,1.472,0,0,0-1.06.443,1.5,1.5,0,0,0-.4,1.084l1.669,34.572a1.669,1.669,0,0,0,1.646,1.582h22.808a1.448,1.448,0,0,0,1.456-1.535l-1.669-34.58a1.661,1.661,0,0,0-1.638-1.582Z" transform="translate(-172.814 -340.35)" fill="#fafafa"/>
        <path id="Path_2255" data-name="Path 2255" d="M198.311,351.311H176.9a.4.4,0,1,1,0-.791h21.439a.4.4,0,1,1,0,.791Z" transform="translate(-173.584 -342.474)" fill="#fafafa"/>
        <path id="Path_2256" data-name="Path 2256" d="M198.583,356.961H177.136a.4.4,0,0,1-.4-.4.4.4,0,0,1,.4-.4h21.447a.4.4,0,0,1,.4.4A.4.4,0,0,1,198.583,356.961Z" transform="translate(-173.634 -343.654)" fill="#fafafa"/>
        <path id="Path_2257" data-name="Path 2257" d="M198.853,362.611H177.406a.4.4,0,0,1-.4-.4.4.4,0,0,1,.4-.4h21.447a.4.4,0,0,1,0,.791Z" transform="translate(-173.69 -344.835)" fill="#fafafa"/>
        <path id="Path_2258" data-name="Path 2258" d="M199.125,368.261H177.686a.4.4,0,1,1,0-.791h21.439a.4.4,0,0,1,0,.791Z" transform="translate(-173.749 -346.015)" fill="#fafafa"/>
        <path id="Path_2259" data-name="Path 2259" d="M199.395,373.911H177.956a.4.4,0,1,1,0-.791h21.439a.4.4,0,1,1,0,.791Z" transform="translate(-173.805 -347.195)" fill="#fafafa"/>
        <path id="Path_2260" data-name="Path 2260" d="M195.274,379.561H178.226a.4.4,0,0,1,0-.791h17.049a.4.4,0,0,1,.4.4A.4.4,0,0,1,195.274,379.561Z" transform="translate(-173.861 -348.375)" fill="#fafafa"/>
      </g>
      <g id="Group_2895" data-name="Group 2895" transform="translate(24.38 75.544)" opacity="0.3">
        <path id="Path_2261" data-name="Path 2261" d="M211.933,224.519l-15.64,2.5a18.2,18.2,0,0,0-2.373-4.169,11.194,11.194,0,0,0-3.267-2.373l.585,12.262q13.046,3.433,17.555,7.247A17.61,17.61,0,0,1,215.121,253a17.255,17.255,0,0,1-1.559,8.5,19.28,19.28,0,0,1-4.945,6.448,19.834,19.834,0,0,1-6.622,3.75,32.65,32.65,0,0,1-8.781,1.377l.1,2.16a2.919,2.919,0,0,1-2.943,3.093h0a3.283,3.283,0,0,1-3.244-3.093l-.1-2.16a39.961,39.961,0,0,1-10.2-2.009,21.851,21.851,0,0,1-6.891-4.043,21.36,21.36,0,0,1-4.636-5.577,26.9,26.9,0,0,1-2.634-7.223l17.017-1.986a16.556,16.556,0,0,0,2.373,6.052,11.432,11.432,0,0,0,4.414,3.307l-.72-14.968a83.717,83.717,0,0,1-12.342-4.114,17.349,17.349,0,0,1-6.471-5.577,16.764,16.764,0,0,1-3.077-9.351,16,16,0,0,1,4.668-12.61q5.032-5.071,15.427-5.617l-.055-1.1a2.919,2.919,0,0,1,2.943-3.093h0a3.283,3.283,0,0,1,3.244,3.093l.055,1.1q9.493.593,14.723,4.494A19.193,19.193,0,0,1,211.933,224.519Zm-27.452-4.233a7.444,7.444,0,0,0-3.663,2.207,4.652,4.652,0,0,0-.91,3.109,5.427,5.427,0,0,0,1.234,3.259,8.465,8.465,0,0,0,3.869,2.318Zm8.2,41.708a9.12,9.12,0,0,0,5.142-2.658,5.728,5.728,0,0,0,1.471-4.145,5.878,5.878,0,0,0-1.582-3.679c-1-1.115-2.9-2.16-5.68-3.117Z" transform="translate(-162.67 -205.16)" fill="#fafafa"/>
      </g>
      <path id="Path_2262" data-name="Path 2262" d="M256.521,146.56H178.2l7.634,158.311a25.632,25.632,0,0,0,25.316,24.161h78.321l-7.626-158.311A25.617,25.617,0,0,0,256.521,146.56Z" transform="translate(-141.533 -117.375)" opacity="0.2"/>
      <path id="Path_2263" data-name="Path 2263" d="M275.712,146.56H178.23a25.624,25.624,0,0,1,25.316,24.161l6.226,128.874a25.632,25.632,0,0,0,25.316,24.161H284.24a22.816,22.816,0,0,0,23.014-24.161l-6.218-128.874A25.617,25.617,0,0,0,275.712,146.56Z" transform="translate(-141.54 -117.375)" fill="#fafafa"/>
      <path id="Path_2264" data-name="Path 2264" d="M273.11,340a22.808,22.808,0,0,1-22.99,24.161h97.474a22.816,22.816,0,0,0,23-24.161Z" transform="translate(-156.556 -157.781)" fill="#e6e6e6"/>
      <path id="Path_2265" data-name="Path 2265" d="M300.113,246.722H231.222a1.907,1.907,0,0,1-1.883-1.8h0a1.7,1.7,0,0,1,1.709-1.8h68.891a1.907,1.907,0,0,1,1.914,1.8h0a1.7,1.7,0,0,1-1.74,1.8Z" transform="translate(-152.215 -137.547)" fill="#00c736"/>
      <path id="Path_2266" data-name="Path 2266" d="M300.793,260.892H231.9a1.907,1.907,0,0,1-1.883-1.8h0a1.7,1.7,0,0,1,1.709-1.8h68.9a1.907,1.907,0,0,1,1.875,1.8h0a1.7,1.7,0,0,1-1.709,1.8Z" transform="translate(-152.357 -140.506)" fill="#00c736"/>
      <path id="Path_2267" data-name="Path 2267" d="M301.481,275.052h-68.9a1.907,1.907,0,0,1-1.883-1.8h0a1.7,1.7,0,0,1,1.709-1.8h68.938a1.907,1.907,0,0,1,1.883,1.8h0a1.7,1.7,0,0,1-1.748,1.8Z" transform="translate(-152.499 -143.464)" fill="#00c736"/>
      <path id="Path_2268" data-name="Path 2268" d="M302.163,289.242H233.272a1.915,1.915,0,0,1-1.883-1.8h0a1.7,1.7,0,0,1,1.709-1.8h68.891a1.907,1.907,0,0,1,1.883,1.8h0a1.7,1.7,0,0,1-1.709,1.8Z" transform="translate(-152.643 -146.428)" fill="#00c736"/>
      <path id="Path_2269" data-name="Path 2269" d="M275.454,303.412h-41.5a1.907,1.907,0,0,1-1.883-1.8h0a1.7,1.7,0,0,1,1.709-1.8h41.5a1.907,1.907,0,0,1,1.883,1.8h0a1.7,1.7,0,0,1-1.709,1.8Z" transform="translate(-152.785 -149.388)" fill="#00c736"/>
      <ellipse id="Ellipse_97" data-name="Ellipse 97" cx="21.131" cy="22.175" rx="21.131" ry="22.175" transform="matrix(0.699, -0.716, 0.716, 0.699, 80.959, 70.078)" fill="#00c736"/>
      <path id="Path_2270" data-name="Path 2270" d="M286.041,193.983a17.333,17.333,0,0,1-1.748,8.512,16.827,16.827,0,0,1-15.245,9.351,18.876,18.876,0,0,1-16.155-9.351,18.386,18.386,0,0,1-2.571-8.512,16.867,16.867,0,0,1,17-17.864,18.987,18.987,0,0,1,18.718,17.864Z" transform="translate(-156.592 -123.55)" fill="#fff"/>
      <path id="Path_2271" data-name="Path 2271" d="M284.98,208.207a16.827,16.827,0,0,1-15.245,9.351,18.876,18.876,0,0,1-16.155-9.351,27.057,27.057,0,0,1,15.474-4.747,29.272,29.272,0,0,1,15.925,4.747Z" transform="translate(-157.279 -129.26)" fill="#00c736" opacity="0.4"/>
      <ellipse id="Ellipse_98" data-name="Ellipse 98" cx="7.769" cy="8.149" rx="7.769" ry="8.149" transform="matrix(0.699, -0.716, 0.716, 0.699, 100.03, 64.18)" fill="#00c736" opacity="0.4"/>
    </g>
  </g>
</svg>
