<svg xmlns="http://www.w3.org/2000/svg" width="345.431" height="265.29" viewBox="0 0 345.431 265.29">
  <g id="Schedule-rafiki" transform="translate(-56.948 -70.726)">
    <g id="freepik--background-simple--inject-15" transform="translate(56.948 70.726)">
      <path id="Path_2132" data-name="Path 2132" d="M290.416,84.393c-24.347-18.5-68.2-19.327-96.243,4.384-30.968,26.19-32.928,73.945-64.218,97.674-31.809,24.159-68.9,12.473-72.826,71.922-3.015,45.813,32.337,45.9,61.928,51.6C172.2,320.2,269.612,370.329,317.277,296.125,371.564,211.622,345,125.884,290.416,84.393Z" transform="translate(-56.948 -70.726)" fill="#f3f3f4"/>
      <path id="Path_2133" data-name="Path 2133" d="M290.416,84.393c-24.347-18.5-68.2-19.327-96.243,4.384-30.968,26.19-32.928,73.945-64.218,97.674-31.809,24.159-68.9,12.473-72.826,71.922-3.015,45.813,32.337,45.9,61.928,51.6C172.2,320.2,269.612,370.329,317.277,296.125,371.564,211.622,345,125.884,290.416,84.393Z" transform="translate(-56.948 -70.726)" fill="#f3f3f4" opacity="0.9"/>
    </g>
    <g id="freepik--Calendar--inject-15" transform="translate(104.461 93.482)">
      <path id="Path_2134" data-name="Path 2134" d="M399.385,311.425H377.91v-.895h21.475a14.316,14.316,0,0,0,12.285-7.48l.787.43a15.211,15.211,0,0,1-13.073,7.946Z" transform="translate(-138.233 -117.927)" fill="#00c736"/>
      <rect id="Rectangle_1629" data-name="Rectangle 1629" width="8.796" height="0.895" transform="translate(226.631 192.603)" fill="#00c736"/>
      <path id="Path_2135" data-name="Path 2135" d="M371.2,288.076H119.946a9.708,9.708,0,0,1-9.843-10.737l13.574-155.692A11.99,11.99,0,0,1,135.31,110.91H386.564a9.717,9.717,0,0,1,9.843,10.737L382.913,277.339A11.99,11.99,0,0,1,371.2,288.076Z" transform="translate(-110.049 -97.71)" fill="#00c736"/>
      <path id="Path_2136" data-name="Path 2136" d="M366.264,287.193H121.273a8.268,8.268,0,0,1-8.339-9.18L125.3,136.181a2.935,2.935,0,0,1,2.854-2.631H386.182a2.371,2.371,0,0,1,2.4,2.631L376.205,278.012a10.209,10.209,0,0,1-9.941,9.18Z" transform="translate(-110.347 -100.092)" fill="#fff"/>
      <path id="Path_2137" data-name="Path 2137" d="M155.735,122.556a11.919,11.919,0,0,1-12.053-13.2A14.71,14.71,0,0,1,158,96.16a11.909,11.909,0,0,1,12.044,13.2h-5.369a7.069,7.069,0,0,0-7.158-7.829A8.724,8.724,0,0,0,149,109.358a7.069,7.069,0,0,0,7.158,7.829Z" transform="translate(-113.58 -96.158)" fill="#263238"/>
      <path id="Path_2138" data-name="Path 2138" d="M215.08,122.556a11.918,11.918,0,0,1-12.089-13.2,14.71,14.71,0,0,1,14.316-13.2,11.91,11.91,0,0,1,12.044,13.2h-5.369a7.069,7.069,0,0,0-7.158-7.829,8.724,8.724,0,0,0-8.518,7.829,7.078,7.078,0,0,0,7.158,7.829Z" transform="translate(-119.821 -96.158)" fill="#263238"/>
      <path id="Path_2139" data-name="Path 2139" d="M274.436,122.556a11.919,11.919,0,0,1-12.044-13.2,14.692,14.692,0,0,1,14.317-13.2,11.91,11.91,0,0,1,12.044,13.2h-5.369a7.06,7.06,0,0,0-7.158-7.829,8.715,8.715,0,0,0-8.509,7.829,7.069,7.069,0,0,0,7.158,7.829Z" transform="translate(-126.071 -96.158)" fill="#263238"/>
      <path id="Path_2140" data-name="Path 2140" d="M333.786,122.556a11.919,11.919,0,0,1-12.044-13.2,14.7,14.7,0,0,1,14.316-13.2,11.919,11.919,0,0,1,12.053,13.2h-5.369a7.069,7.069,0,0,0-7.158-7.829,8.715,8.715,0,0,0-8.509,7.829,7.069,7.069,0,0,0,7.158,7.829Z" transform="translate(-132.316 -96.158)" fill="#263238"/>
      <path id="Path_2141" data-name="Path 2141" d="M393.136,122.556a11.918,11.918,0,0,1-12.044-13.2,14.7,14.7,0,0,1,14.316-13.2,11.919,11.919,0,0,1,12.053,13.2h-5.369a7.069,7.069,0,0,0-7.158-7.829,8.724,8.724,0,0,0-8.509,7.829,7.069,7.069,0,0,0,7.158,7.829Z" transform="translate(-138.56 -96.158)" fill="#263238"/>
      <path id="Path_2142" data-name="Path 2142" d="M366.813,281.692H124.622a.394.394,0,0,1-.4-.447L136.29,142.857a.492.492,0,0,1,.483-.447H378.955a.4.4,0,0,1,.412.447L367.3,281.244A.492.492,0,0,1,366.813,281.692ZM125.15,280.8H366.437l12-137.492H137.149Z" transform="translate(-111.539 -101.025)" fill="#e0e0e0"/>
      <path id="Path_2143" data-name="Path 2143" d="M369.477,267.035H127.322a.4.4,0,0,1-.4-.447.483.483,0,0,1,.483-.447H369.584a.4.4,0,0,1,.412.447A.51.51,0,0,1,369.477,267.035Z" transform="translate(-111.824 -114.043)" fill="#e0e0e0"/>
      <path id="Path_2144" data-name="Path 2144" d="M372.2,236.1H130.021a.412.412,0,0,1-.412-.447.5.5,0,0,1,.492-.447H372.283a.4.4,0,0,1,.412.447.51.51,0,0,1-.492.447Z" transform="translate(-112.107 -110.789)" fill="#e0e0e0"/>
      <path id="Path_2145" data-name="Path 2145" d="M374.9,205.165H132.721a.4.4,0,0,1-.412-.447.51.51,0,0,1,.492-.447H374.983a.4.4,0,0,1,.4.447.483.483,0,0,1-.483.447Z" transform="translate(-112.391 -107.534)" fill="#e0e0e0"/>
      <path id="Path_2146" data-name="Path 2146" d="M377.6,174.235H135.421a.4.4,0,0,1-.412-.447.492.492,0,0,1,.483-.447h242.19a.394.394,0,0,1,.4.447A.483.483,0,0,1,377.6,174.235Z" transform="translate(-112.675 -104.279)" fill="#e0e0e0"/>
      <path id="Path_2147" data-name="Path 2147" d="M361.452,281.692a.394.394,0,0,1-.4-.447L373.12,142.857a.492.492,0,0,1,.483-.447.4.4,0,0,1,.412.447L361.944,281.244A.5.5,0,0,1,361.452,281.692Z" transform="translate(-136.458 -101.025)" fill="#e0e0e0"/>
      <path id="Path_2148" data-name="Path 2148" d="M327.621,281.692a.4.4,0,0,1-.412-.447L339.28,142.857a.5.5,0,0,1,.492-.447.394.394,0,0,1,.4.447L328.1,281.244a.483.483,0,0,1-.483.447Z" transform="translate(-132.898 -101.025)" fill="#e0e0e0"/>
      <path id="Path_2149" data-name="Path 2149" d="M293.791,281.692a.4.4,0,0,1-.412-.447L305.45,142.857a.5.5,0,0,1,.492-.447.394.394,0,0,1,.4.447L294.274,281.244A.492.492,0,0,1,293.791,281.692Z" transform="translate(-129.338 -101.025)" fill="#e0e0e0"/>
      <path id="Path_2150" data-name="Path 2150" d="M259.951,281.692a.4.4,0,0,1-.412-.447l12.044-138.387a.492.492,0,0,1,.483-.447.4.4,0,0,1,.412.447L260.443,281.244a.492.492,0,0,1-.492.447Z" transform="translate(-125.778 -101.025)" fill="#e0e0e0"/>
      <path id="Path_2151" data-name="Path 2151" d="M226.122,281.692a.394.394,0,0,1-.4-.447L237.79,142.857a.483.483,0,0,1,.483-.447.4.4,0,0,1,.412.447L226.614,281.244a.5.5,0,0,1-.492.447Z" transform="translate(-122.219 -101.025)" fill="#e0e0e0"/>
      <path id="Path_2152" data-name="Path 2152" d="M192.291,281.692a.4.4,0,0,1-.412-.447L203.95,142.857a.5.5,0,0,1,.492-.447.394.394,0,0,1,.4.447L192.775,281.244a.483.483,0,0,1-.483.447Z" transform="translate(-118.659 -101.025)" fill="#e0e0e0"/>
      <path id="Path_2153" data-name="Path 2153" d="M158.461,281.692a.4.4,0,0,1-.412-.447L170.12,142.857a.5.5,0,0,1,.492-.447.394.394,0,0,1,.4.447L158.944,281.244A.492.492,0,0,1,158.461,281.692Z" transform="translate(-115.099 -101.025)" fill="#e0e0e0"/>
      <path id="Path_2154" data-name="Path 2154" d="M293.187,199.076h-18.5a2.577,2.577,0,0,1-2.6-2.863l1.432-16.419a3.176,3.176,0,0,1,3.1-2.863h18.5a2.577,2.577,0,0,1,2.613,2.863L296.3,196.212A3.177,3.177,0,0,1,293.187,199.076Z" transform="translate(-127.097 -104.657)" fill="#00c736"/>
      <path id="Path_2155" data-name="Path 2155" d="M293.187,199.076h-18.5a2.577,2.577,0,0,1-2.6-2.863l1.432-16.419a3.176,3.176,0,0,1,3.1-2.863h18.5a2.577,2.577,0,0,1,2.613,2.863L296.3,196.212A3.177,3.177,0,0,1,293.187,199.076Z" transform="translate(-127.097 -104.657)" fill="#fff" opacity="0.6"/>
      <path id="Path_2156" data-name="Path 2156" d="M437.6,199.076H418.16l1.924-22.146h19.452l-7.31,11.077Z" transform="translate(-142.468 -104.657)" fill="#fff"/>
      <path id="Path_2157" data-name="Path 2157" d="M438.271,199.471H417.61l2.013-23.041h20.705l-7.6,11.525Zm-19.685-.895h18.227l-5.163-10.621,7.015-10.63H420.438Z" transform="translate(-142.41 -104.604)" fill="#00c736"/>
      <path id="Path_2158" data-name="Path 2158" d="M357.956,230.007h-18.5a2.577,2.577,0,0,1-2.613-2.854l1.432-16.428a3.185,3.185,0,0,1,3.114-2.854h18.5a2.586,2.586,0,0,1,2.613,2.854l-1.432,16.428A3.185,3.185,0,0,1,357.956,230.007Z" transform="translate(-133.911 -107.912)" fill="#00c736"/>
      <path id="Path_2159" data-name="Path 2159" d="M357.956,230.007h-18.5a2.577,2.577,0,0,1-2.613-2.854l1.432-16.428a3.185,3.185,0,0,1,3.114-2.854h18.5a2.586,2.586,0,0,1,2.613,2.854l-1.432,16.428A3.185,3.185,0,0,1,357.956,230.007Z" transform="translate(-133.911 -107.912)" fill="#fff" opacity="0.4"/>
      <path id="Path_2160" data-name="Path 2160" d="M393.966,168.146H344.861a2.577,2.577,0,0,1-2.613-2.863l1.432-16.419a3.176,3.176,0,0,1,3.1-2.863H395.9a2.586,2.586,0,0,1,2.613,2.863l-1.432,16.419A3.176,3.176,0,0,1,393.966,168.146Z" transform="translate(-134.479 -101.402)" fill="#00c736"/>
      <path id="Path_2161" data-name="Path 2161" d="M178.412,192.523c-7.462,0-13.681-2.64-18.092-7.7-5.664-6.505-6.514-14.576-2.228-21.072,6.362-9.619,22.942-14.746,33.85-13.323a.412.412,0,0,1,.349.5.5.5,0,0,1-.537.385c-10.639-1.387-26.763,3.579-32.919,12.885-4.85,7.337-2.049,15.14,2.192,20.007,5.915,6.782,13.976,7.74,19.685,7.337a44.536,44.536,0,0,0,29.734-15.515c1.924-2.38,4.877-6.952,3.069-10.737-2.684-5.664-11.632-5.27-19.095-4.3a.412.412,0,0,1-.465-.385.492.492,0,0,1,.429-.5c4.993-.653,16.679-2.165,19.945,4.76,2.022,4.259-1.145,9.18-3.2,11.74-7.042,8.715-19.274,15.1-30.423,15.873C179.933,192.5,179.2,192.523,178.412,192.523Z" transform="translate(-114.819 -101.844)" fill="#00c736"/>
      <path id="Path_2162" data-name="Path 2162" d="M347.44,225.774h-.072a.8.8,0,0,1-.662-.447,20.723,20.723,0,0,0-3.749-5.744.933.933,0,1,1,1.315-1.324,19.569,19.569,0,0,1,3.517,5.091,79.712,79.712,0,0,1,9.959-8.661.862.862,0,1,1,.993,1.4,75.958,75.958,0,0,0-10.585,9.368A.975.975,0,0,1,347.44,225.774Z" transform="translate(-134.526 -108.61)" fill="#fff"/>
      <path id="Path_2163" data-name="Path 2163" d="M310.085,290.968a9.073,9.073,0,0,1-9.172-10.048,11.185,11.185,0,0,1,10.925-10.039,9.064,9.064,0,0,1,9.171,10.039,11.194,11.194,0,0,1-10.925,10.048Zm1.637-18.3a9.2,9.2,0,0,0-8.948,8.25,7.453,7.453,0,0,0,7.534,8.259,9.207,9.207,0,0,0,8.948-8.259,7.462,7.462,0,0,0-7.534-8.25Z" transform="translate(-130.126 -114.542)" fill="#00c736"/>
      <path id="Path_2164" data-name="Path 2164" d="M213.915,228.987a9.073,9.073,0,0,1-9.172-10.048A11.194,11.194,0,0,1,215.7,208.89a9.073,9.073,0,0,1,9.172,10.048A11.2,11.2,0,0,1,213.915,228.987Zm1.593-18.307a9.2,9.2,0,0,0-8.948,8.259,7.453,7.453,0,0,0,7.534,8.259,9.207,9.207,0,0,0,8.948-8.259,7.462,7.462,0,0,0-7.516-8.259Z" transform="translate(-120.007 -108.019)" fill="#00c736"/>
    </g>
  </g>
</svg>
