<svg xmlns="http://www.w3.org/2000/svg" width="305.815" height="270.8" viewBox="0 0 305.815 270.8">
  <g id="Mail_sent-pana" data-name="Mail sent-pana" transform="translate(-52.45 -65.769)">
    <g id="freepik--background-simple--inject-17" transform="translate(52.45 72.118)">
      <path id="Path_2484" data-name="Path 2484" d="M53.574,163.545c8.992,70.834,44.394,121.284,148.236,140.69,57.752,10.781,163.07-23.65,156.127-86.509-7.715-69.794-80.43-40.525-140.422-63.058C181.64,141.21,162.5,67.968,104.3,72.3,58.292,75.7,48.757,125.62,53.574,163.545Z" transform="translate(-52.45 -72.118)" fill="#f3f3f4" opacity="0.32"/>
    </g>
    <g id="freepik--mail-sent--inject-17" transform="translate(58.185 65.768)">
      <path id="Path_2485" data-name="Path 2485" d="M254.917,84.257,241.485,94.484l.652,19.53-12.291-9.765-6.791,5.813L197.25,78.2Z" transform="translate(-62.289 -78.2)" fill="#00c736"/>
      <path id="Path_2486" data-name="Path 2486" d="M227.837,93.25c0,.6,5.7,15.374,5.7,15.374L221.25,98.859Z" transform="translate(-53.693 -72.81)" fill="#00c736"/>
      <g id="Group_2902" data-name="Group 2902" transform="translate(167.557 20.44)" opacity="0.3">
        <path id="Path_2487" data-name="Path 2487" d="M227.837,93.25c0,.6,5.7,15.374,5.7,15.374L221.25,98.859Z" transform="translate(-221.25 -93.25)"/>
      </g>
      <path id="Path_2488" data-name="Path 2488" d="M197.25,78.2l39.182,20.44,5.7,15.374-.652-19.53Z" transform="translate(-62.289 -78.2)" fill="#00c736"/>
      <path id="Path_2489" data-name="Path 2489" d="M197.25,78.2l39.182,20.44,5.7,15.374-.652-19.53Z" transform="translate(-62.289 -78.2)" opacity="0.1"/>
      <path id="Path_2490" data-name="Path 2490" d="M279.087,272.668a17.532,17.532,0,0,1-6.967-1.7A17.536,17.536,0,0,1,279.087,272.668Z" transform="translate(-35.475 -9.161)" fill="#263238"/>
      <path id="Path_2491" data-name="Path 2491" d="M286.526,274.52c0,.2-1.019.136-2.159-.136s-2.037-.679-2-.883,1.019-.136,2.173.149S286.581,274.316,286.526,274.52Z" transform="translate(-31.804 -8.297)" fill="#263238"/>
      <path id="Path_2492" data-name="Path 2492" d="M253.507,103.138a10.581,10.581,0,0,1-3.545-.557,9.929,9.929,0,0,1-3.422-1.073,7.986,7.986,0,0,1,3.6.353A7.564,7.564,0,0,1,253.507,103.138Z" transform="translate(-44.636 -69.877)" fill="#263238"/>
      <path id="Path_2493" data-name="Path 2493" d="M263.037,107.685a24.35,24.35,0,0,1-6.4-3.205,7.728,7.728,0,0,1,3.409,1.168C261.828,106.544,263.145,107.509,263.037,107.685Z" transform="translate(-41.019 -68.788)" fill="#263238"/>
      <path id="Path_2494" data-name="Path 2494" d="M271.174,114.436c-.149.149-1.358-.869-2.879-2.146s-2.716-2.363-2.54-2.54a7.878,7.878,0,0,1,3.056,1.969C270.291,113.023,271.323,114.3,271.174,114.436Z" transform="translate(-37.761 -66.901)" fill="#263238"/>
      <path id="Path_2495" data-name="Path 2495" d="M277.179,123.128c-.19.1-1.087-1.222-2.173-2.852a10.664,10.664,0,0,1-1.766-3.124c.149-.122,1.29,1.046,2.39,2.716a7.715,7.715,0,0,1,1.548,3.26Z" transform="translate(-35.074 -64.253)" fill="#263238"/>
      <path id="Path_2496" data-name="Path 2496" d="M280.282,133.239a10.865,10.865,0,0,1-1.2-3.382,10.269,10.269,0,0,1-.747-3.518,7.918,7.918,0,0,1,1.453,3.314,7.415,7.415,0,0,1,.489,3.586Z" transform="translate(-33.247 -60.959)" fill="#263238"/>
      <path id="Path_2497" data-name="Path 2497" d="M280.37,143.807a11.189,11.189,0,0,1-.149-3.585,10.24,10.24,0,0,1,.326-3.572,7.919,7.919,0,0,1,.421,3.585A7.756,7.756,0,0,1,280.37,143.807Z" transform="translate(-32.602 -57.267)" fill="#263238"/>
      <path id="Path_2498" data-name="Path 2498" d="M277.58,153.836a11.058,11.058,0,0,1,1-3.436,11.408,11.408,0,0,1,1.358-3.3,7.185,7.185,0,0,1-.72,3.545A7.375,7.375,0,0,1,277.58,153.836Z" transform="translate(-33.519 -53.524)" fill="#263238"/>
      <path id="Path_2499" data-name="Path 2499" d="M271.473,162.025c-.136-.163.924-1.358,2.214-2.825s2.322-2.716,2.5-2.567a7.429,7.429,0,0,1-1.942,3.056C272.926,161.21,271.609,162.174,271.473,162.025Z" transform="translate(-35.711 -50.114)" fill="#263238"/>
      <path id="Path_2500" data-name="Path 2500" d="M262.65,167.154a11.217,11.217,0,0,1,3.069-1.847,10.973,10.973,0,0,1,3.273-1.467,7.511,7.511,0,0,1-2.934,2.132A7.4,7.4,0,0,1,262.65,167.154Z" transform="translate(-38.866 -47.529)" fill="#263238"/>
      <path id="Path_2501" data-name="Path 2501" d="M252.39,168.74a10.864,10.864,0,0,1,3.545-.666,11.179,11.179,0,0,1,3.586-.231,7.429,7.429,0,0,1-3.49.964,7.252,7.252,0,0,1-3.64-.068Z" transform="translate(-42.541 -46.114)" fill="#263238"/>
      <path id="Path_2502" data-name="Path 2502" d="M242.09,166.54a38.787,38.787,0,0,1,6.791,2.078,7.049,7.049,0,0,1-3.585-.489,6.914,6.914,0,0,1-3.205-1.589Z" transform="translate(-46.23 -46.562)" fill="#263238"/>
      <path id="Path_2503" data-name="Path 2503" d="M234.79,159.3c.2-.068.828,1.358,1.942,2.961s2.187,2.716,2.037,2.92-1.48-.815-2.648-2.485A5.433,5.433,0,0,1,234.79,159.3Z" transform="translate(-48.844 -49.155)" fill="#263238"/>
      <path id="Path_2504" data-name="Path 2504" d="M240.714,151.111c0,.217-1.48.693-3.029,1.793s-2.377,2.472-2.567,2.363.407-1.738,2.132-2.961A4.971,4.971,0,0,1,240.714,151.111Z" transform="translate(-48.738 -52.089)" fill="#263238"/>
      <path id="Path_2505" data-name="Path 2505" d="M249.64,156.1c-.19.109-1.059-1.222-2.472-2.526s-2.852-1.956-2.716-2.159a4.958,4.958,0,0,1,3.287,1.616A5.27,5.27,0,0,1,249.64,156.1Z" transform="translate(-45.387 -51.98)" fill="#263238"/>
      <path id="Path_2506" data-name="Path 2506" d="M248.61,166.914a17.212,17.212,0,0,1,.665-3.49,17.453,17.453,0,0,1,.665-3.5,6.194,6.194,0,0,1,0,3.64,6.071,6.071,0,0,1-1.331,3.355Z" transform="translate(-43.895 -48.933)" fill="#263238"/>
      <path id="Path_2507" data-name="Path 2507" d="M241.762,174.155c-.122-.177,1.114-1.2,2.594-2.458a14.74,14.74,0,0,1,2.811-2.214,7.078,7.078,0,0,1-2.322,2.716C243.31,173.449,241.871,174.332,241.762,174.155Z" transform="translate(-46.35 -45.512)" fill="#263238"/>
      <path id="Path_2508" data-name="Path 2508" d="M232.41,178.568a9.017,9.017,0,0,1,3.1-1.833,8.786,8.786,0,0,1,3.409-1.154,17.33,17.33,0,0,1-6.505,2.988Z" transform="translate(-49.697 -43.324)" fill="#263238"/>
      <path id="Path_2509" data-name="Path 2509" d="M223,183.491c-.109-.177,1.182-1.141,2.893-2.173a8.148,8.148,0,0,1,3.341-1.358c.109.2-1.277,1.032-2.974,2.01A8.773,8.773,0,0,1,223,183.491Z" transform="translate(-53.068 -41.756)" fill="#263238"/>
      <path id="Path_2510" data-name="Path 2510" d="M215,190.765c-.149-.136.788-1.467,2.214-2.866a7.972,7.972,0,0,1,2.893-2.159c.136.163-.964,1.358-2.363,2.716S215.221,190.9,215,190.765Z" transform="translate(-55.936 -39.685)" fill="#263238"/>
      <path id="Path_2511" data-name="Path 2511" d="M209,199.67a7.9,7.9,0,0,1,1.467-3.3c1.046-1.7,2.119-2.92,2.282-2.8a10.077,10.077,0,0,1-1.643,3.192C210.073,198.434,209.19,199.765,209,199.67Z" transform="translate(-58.081 -36.883)" fill="#263238"/>
      <path id="Path_2512" data-name="Path 2512" d="M205.163,209.654a7.62,7.62,0,0,1,.652-3.545,7.728,7.728,0,0,1,1.562-3.259,24.175,24.175,0,0,1-2.214,6.791Z" transform="translate(-59.459 -33.558)" fill="#263238"/>
      <path id="Path_2513" data-name="Path 2513" d="M203.853,220.184a13.309,13.309,0,0,1,.489-7.144,10.444,10.444,0,0,1,0,3.586,10.281,10.281,0,0,1-.489,3.558Z" transform="translate(-60.023 -29.908)" fill="#263238"/>
      <path id="Path_2514" data-name="Path 2514" d="M205.563,230.582a8.733,8.733,0,0,1-1.127-3.422,7.307,7.307,0,0,1-.3-3.6,11.313,11.313,0,0,1,1.032,3.45,8.773,8.773,0,0,1,.394,3.572Z" transform="translate(-59.859 -26.141)" fill="#263238"/>
      <path id="Path_2515" data-name="Path 2515" d="M210.068,240.12c-.177.109-1.141-1.2-2.024-2.988a7.579,7.579,0,0,1-1.154-3.423,10.349,10.349,0,0,1,1.82,3.1A10.241,10.241,0,0,1,210.068,240.12Z" transform="translate(-58.836 -22.505)" fill="#263238"/>
      <path id="Path_2516" data-name="Path 2516" d="M216.782,248.3c-.136.136-1.358-.9-2.716-2.418a8.04,8.04,0,0,1-1.956-3.042c.177-.136,1.249,1.059,2.526,2.553S216.931,248.153,216.782,248.3Z" transform="translate(-56.967 -19.238)" fill="#263238"/>
      <path id="Path_2517" data-name="Path 2517" d="M225.2,254.674a7.769,7.769,0,0,1-3.178-1.725c-1.6-1.168-2.716-2.336-2.608-2.5a10.4,10.4,0,0,1,3.056,1.9C224.043,253.506,225.306,254.5,225.2,254.674Z" transform="translate(-54.354 -16.51)" fill="#263238"/>
      <path id="Path_2518" data-name="Path 2518" d="M234.921,258.806a7.593,7.593,0,0,1-3.5-.883,7.4,7.4,0,0,1-3.137-1.793,10.865,10.865,0,0,1,3.409,1.1A11.356,11.356,0,0,1,234.921,258.806Z" transform="translate(-51.176 -14.476)" fill="#263238"/>
      <path id="Path_2519" data-name="Path 2519" d="M238.526,259.554c0,.19-.122.353-.19.34s-.1-.19,0-.394.122-.353.19-.34S238.567,259.35,238.526,259.554Z" transform="translate(-47.596 -13.391)" fill="#263238"/>
      <rect id="Rectangle_1632" data-name="Rectangle 1632" width="15.632" height="9.724" transform="matrix(0.95, 0.312, -0.312, 0.95, 165.695, 205.718)" fill="#00c736"/>
      <g id="Group_2903" data-name="Group 2903" transform="translate(162.661 205.718)" opacity="0.3">
        <rect id="Rectangle_1633" data-name="Rectangle 1633" width="15.632" height="9.724" transform="matrix(0.95, 0.312, -0.312, 0.95, 3.034, 0)"/>
      </g>
      <path id="Path_2520" data-name="Path 2520" d="M234.7,234.569a61.621,61.621,0,0,1-8.611,3.531l-.258.1-.163-.217-.258-.326a61,61,0,0,1-5.555-7.972,63.946,63.946,0,0,1,6.152,7.524l.244.326-.421-.122a57.808,57.808,0,0,1,8.869-2.839Z" transform="translate(-54.191 -23.949)" fill="#00c736"/>
      <g id="Group_2904" data-name="Group 2904" transform="translate(165.669 205.731)" opacity="0.1">
        <path id="Path_2521" data-name="Path 2521" d="M234.7,234.569a61.621,61.621,0,0,1-8.611,3.531l-.258.1-.163-.217-.258-.326a61,61,0,0,1-5.555-7.972,63.946,63.946,0,0,1,6.152,7.524l.244.326-.421-.122a57.808,57.808,0,0,1,8.869-2.839Z" transform="translate(-219.86 -229.68)"/>
      </g>
      <path id="Path_2522" data-name="Path 2522" d="M224.93,233.85a11.163,11.163,0,0,1-3.49,2.132,11.94,11.94,0,0,1-3.83,1.453,11.544,11.544,0,0,1,3.5-2.132A12.046,12.046,0,0,1,224.93,233.85Z" transform="translate(-54.997 -22.455)" fill="#00c736"/>
      <g id="Group_2905" data-name="Group 2905" transform="translate(162.613 211.395)" opacity="0.1">
        <path id="Path_2523" data-name="Path 2523" d="M224.93,233.85a11.163,11.163,0,0,1-3.49,2.132,11.94,11.94,0,0,1-3.83,1.453,11.544,11.544,0,0,1,3.5-2.132A12.046,12.046,0,0,1,224.93,233.85Z" transform="translate(-217.61 -233.85)"/>
      </g>
      <path id="Path_2524" data-name="Path 2524" d="M229.591,242.031a11.192,11.192,0,0,1-1.9-3.436c-.9-2.024-1.494-3.762-1.222-3.735a11.354,11.354,0,0,1,1.915,3.436A10.566,10.566,0,0,1,229.591,242.031Z" transform="translate(-51.848 -22.094)" fill="#00c736"/>
      <g id="Group_2906" data-name="Group 2906" transform="translate(174.553 212.766)" opacity="0.1">
        <path id="Path_2525" data-name="Path 2525" d="M229.591,242.031a11.192,11.192,0,0,1-1.9-3.436c-.9-2.024-1.494-3.762-1.222-3.735a11.354,11.354,0,0,1,1.915,3.436A10.566,10.566,0,0,1,229.591,242.031Z" transform="translate(-226.401 -234.86)"/>
      </g>
      <rect id="Rectangle_1634" data-name="Rectangle 1634" width="40.201" height="25.017" transform="matrix(0.95, 0.312, -0.312, 0.95, 202.915, 234.243)" fill="#00c736"/>
      <path id="Path_2526" data-name="Path 2526" d="M285.469,263.239a9.751,9.751,0,0,1-1.711.774L279,265.874c-4.074,1.535-9.629,3.626-15.89,5.922l-.258.095-.163-.217-.638-.842c-4.156-5.433-7.9-10.5-10.58-14.152l-3.192-4.332a10.867,10.867,0,0,1-1.073-1.657,10.727,10.727,0,0,1,1.358,1.48l3.327,4.2c2.784,3.558,6.587,8.516,10.756,14.016l.638.828-.421-.122c6.247-2.282,11.884-4.292,15.958-5.7l4.835-1.643A10.013,10.013,0,0,1,285.469,263.239Z" transform="translate(-44.396 -16.424)" fill="#00c736"/>
      <g id="Group_2907" data-name="Group 2907" transform="translate(202.814 234.266)" opacity="0.2">
        <path id="Path_2527" data-name="Path 2527" d="M285.469,263.239a9.751,9.751,0,0,1-1.711.774L279,265.874c-4.074,1.535-9.629,3.626-15.89,5.922l-.258.095-.163-.217-.638-.842c-4.156-5.433-7.9-10.5-10.58-14.152l-3.192-4.332a10.867,10.867,0,0,1-1.073-1.657,10.727,10.727,0,0,1,1.358,1.48l3.327,4.2c2.784,3.558,6.587,8.516,10.756,14.016l.638.828-.421-.122c6.247-2.282,11.884-4.292,15.958-5.7l4.835-1.643A10.013,10.013,0,0,1,285.469,263.239Z" transform="translate(-247.21 -250.69)"/>
      </g>
      <path id="Path_2528" data-name="Path 2528" d="M260.347,261.42a75.681,75.681,0,0,1-9.263,4.93,76.349,76.349,0,0,1-9.575,4.265,71.689,71.689,0,0,1,9.249-4.944,71.525,71.525,0,0,1,9.588-4.251Z" transform="translate(-46.437 -12.581)" fill="#00c736"/>
      <g id="Group_2908" data-name="Group 2908" transform="translate(195.073 248.839)" opacity="0.2">
        <path id="Path_2529" data-name="Path 2529" d="M260.347,261.42a75.681,75.681,0,0,1-9.263,4.93,76.349,76.349,0,0,1-9.575,4.265,71.689,71.689,0,0,1,9.249-4.944,71.525,71.525,0,0,1,9.588-4.251Z" transform="translate(-241.51 -261.42)"/>
      </g>
      <path id="Path_2530" data-name="Path 2530" d="M272.257,282.457a69.254,69.254,0,0,1-4.36-9.072A68.5,68.5,0,0,1,264.23,264a68.94,68.94,0,0,1,4.36,9.086,67.986,67.986,0,0,1,3.667,9.371Z" transform="translate(-38.3 -11.657)" fill="#00c736"/>
      <g id="Group_2909" data-name="Group 2909" transform="translate(225.93 252.343)" opacity="0.2">
        <path id="Path_2531" data-name="Path 2531" d="M272.257,282.457a69.254,69.254,0,0,1-4.36-9.072A68.5,68.5,0,0,1,264.23,264a68.94,68.94,0,0,1,4.36,9.086,67.986,67.986,0,0,1,3.667,9.371Z" transform="translate(-264.23 -264)"/>
      </g>
      <path id="Path_2532" data-name="Path 2532" d="M251.3,257.84a5.962,5.962,0,1,1,2.367-3.9A5.962,5.962,0,0,1,251.3,257.84Z" transform="translate(-46.329 -17.721)" fill="#263238"/>
      <path id="Path_2533" data-name="Path 2533" d="M250.809,250.725A27.259,27.259,0,0,1,246.8,253.2l-.951.53-.177.1-.1-.163a19.269,19.269,0,0,1-1.63-3.219,17.91,17.91,0,0,1,1.969,3.029l-.258-.081.951-.543A26.965,26.965,0,0,1,250.809,250.725Z" transform="translate(-45.564 -16.514)" fill="#fff"/>
      <rect id="Rectangle_1635" data-name="Rectangle 1635" width="21.065" height="13.106" transform="matrix(0.95, 0.312, -0.312, 0.95, 196.562, 208.189)" fill="#00c736"/>
      <g id="Group_2910" data-name="Group 2910" transform="translate(192.473 208.189)" opacity="0.2">
        <rect id="Rectangle_1636" data-name="Rectangle 1636" width="21.065" height="13.106" transform="matrix(0.95, 0.312, -0.312, 0.95, 4.089, 0)"/>
      </g>
      <path id="Path_2534" data-name="Path 2534" d="M262.582,238.073a4.54,4.54,0,0,1-.883.407l-2.5.978c-2.105.8-5.039,1.9-8.325,3.1h-.136l-.081-.122-.326-.435c-2.187-2.879-4.074-5.5-5.555-7.415l-1.63-2.214a5.971,5.971,0,0,1-.557-.869,5.131,5.131,0,0,1,.679.774l1.752,2.2c1.453,1.861,3.45,4.455,5.623,7.334l.34.448h-.217c3.273-1.2,6.22-2.254,8.366-2.988l2.526-.856A4.371,4.371,0,0,1,262.582,238.073Z" transform="translate(-46.051 -23.297)" fill="#00c736"/>
      <g id="Group_2911" data-name="Group 2911" transform="translate(196.539 208.203)" opacity="0.2">
        <path id="Path_2535" data-name="Path 2535" d="M262.582,238.073a4.54,4.54,0,0,1-.883.407l-2.5.978c-2.105.8-5.039,1.9-8.325,3.1h-.136l-.081-.122-.326-.435c-2.187-2.879-4.074-5.5-5.555-7.415l-1.63-2.214a5.971,5.971,0,0,1-.557-.869,5.131,5.131,0,0,1,.679.774l1.752,2.2c1.453,1.861,3.45,4.455,5.623,7.334l.34.448h-.217c3.273-1.2,6.22-2.254,8.366-2.988l2.526-.856A4.371,4.371,0,0,1,262.582,238.073Z" transform="translate(-242.59 -231.5)" fill="#00c736"/>
      </g>
      <path id="Path_2536" data-name="Path 2536" d="M249.444,237.12a40.93,40.93,0,0,1-4.849,2.58,40.414,40.414,0,0,1-5.025,2.241,37.378,37.378,0,0,1,4.849-2.594,38.11,38.11,0,0,1,5.025-2.227Z" transform="translate(-47.132 -21.284)" fill="#00c736"/>
      <g id="Group_2912" data-name="Group 2912" transform="translate(192.438 215.836)" opacity="0.2">
        <path id="Path_2537" data-name="Path 2537" d="M249.444,237.12a40.93,40.93,0,0,1-4.849,2.58,40.414,40.414,0,0,1-5.025,2.241,37.378,37.378,0,0,1,4.849-2.594,38.11,38.11,0,0,1,5.025-2.227Z" transform="translate(-239.57 -237.12)" fill="#00c736"/>
      </g>
      <path id="Path_2538" data-name="Path 2538" d="M255.68,248.14a35.852,35.852,0,0,1-2.282-4.754,38.412,38.412,0,0,1-1.929-4.916,69.128,69.128,0,0,1,4.21,9.67Z" transform="translate(-42.87 -20.801)" fill="#00c736"/>
      <g id="Group_2913" data-name="Group 2913" transform="translate(208.6 217.669)" opacity="0.2">
        <path id="Path_2539" data-name="Path 2539" d="M255.68,248.14a35.852,35.852,0,0,1-2.282-4.754,38.412,38.412,0,0,1-1.929-4.916,69.128,69.128,0,0,1,4.21,9.67Z" transform="translate(-251.47 -238.47)" fill="#00c736"/>
      </g>
      <path id="Path_2540" data-name="Path 2540" d="M153.727,130.891a28.358,28.358,0,1,1-20.508-34.47A28.358,28.358,0,0,1,153.727,130.891Z" transform="translate(-76.878 -71.989)" fill="#263238"/>
      <path id="Path_2541" data-name="Path 2541" d="M133.343,105.11c.5.2-2.716,9.7-7.2,21.214-.665,1.671-1.358,3.273-1.915,4.849l-.34.856-.856-.326c-9.195-3.545-15.917-6.465-15.754-6.886s7.144,1.779,16.406,5.134l-1.2.543c.6-1.575,1.222-3.192,1.861-4.862C128.821,114.1,132.855,104.961,133.343,105.11Z" transform="translate(-73.512 -68.563)" fill="#fff"/>
    </g>
  </g>
</svg>
