<svg xmlns="http://www.w3.org/2000/svg" width="372.891" height="339.691" viewBox="0 0 372.891 339.691">
  <g id="To_the_stars-pana" data-name="To the stars-pana" transform="translate(-20 -41.69)">
    <g id="freepik--background-complete--inject-2" transform="translate(20 41.69)">
      <path id="Path_2165" data-name="Path 2165" d="M323.368,90l.455.812a5.56,5.56,0,0,0,2.2,2.175l.812.446-.812.446a5.528,5.528,0,0,0-2.2,2.183l-.455.812-.446-.812a5.528,5.528,0,0,0-2.2-2.183l-.812-.446.812-.446a5.56,5.56,0,0,0,2.2-2.175Z" transform="translate(-76.482 -50.788)" fill="#ebebeb"/>
      <path id="Path_2166" data-name="Path 2166" d="M113.038,44.77l.455.812a5.438,5.438,0,0,0,2.192,2.175l.812.455-.812.446a5.487,5.487,0,0,0-2.192,2.175l-.455.812-.455-.812a5.487,5.487,0,0,0-2.192-2.175l-.812-.446.812-.455a5.438,5.438,0,0,0,2.192-2.175Z" transform="translate(-36.87 -42.27)" fill="#ebebeb"/>
      <path id="Path_2167" data-name="Path 2167" d="M443.508,154.69l.455.812a5.454,5.454,0,0,0,2.2,2.175l.812.446-.812.446a5.455,5.455,0,0,0-2.2,2.175l-.455.812-.455-.812a5.487,5.487,0,0,0-2.191-2.175l-.812-.446.812-.446a5.487,5.487,0,0,0,2.191-2.175Z" transform="translate(-99.107 -62.971)" fill="#ebebeb"/>
      <path id="Path_2168" data-name="Path 2168" d="M32.441,224.31l.446.812a5.56,5.56,0,0,0,2.2,2.183l.812.446-.812.446a5.56,5.56,0,0,0-2.2,2.175l-.446.812-.455-.812a5.454,5.454,0,0,0-2.175-2.175L29,227.751l.812-.446a5.455,5.455,0,0,0,2.2-2.175Z" transform="translate(-21.695 -76.083)" fill="#ebebeb"/>
      <path id="Path_2169" data-name="Path 2169" d="M223.131,41.69l.812,1.42a9.44,9.44,0,0,0,3.758,3.75l1.412.812-1.412.771a9.456,9.456,0,0,0-3.758,3.758l-.812,1.412L222.36,52.2a9.456,9.456,0,0,0-3.758-3.766l-1.412-.812,1.412-.812a9.44,9.44,0,0,0,3.758-3.75Z" transform="translate(-57.136 -41.69)" fill="#ebebeb"/>
      <path id="Path_2170" data-name="Path 2170" d="M93.251,127.27l.812,1.412a9.513,9.513,0,0,0,3.758,3.758l1.412.812-1.412.771a9.513,9.513,0,0,0-3.758,3.758l-.812,1.412-.771-1.412a9.456,9.456,0,0,0-3.758-3.758l-1.412-.771,1.412-.812a9.456,9.456,0,0,0,3.758-3.766Z" transform="translate(-32.676 -57.807)" fill="#ebebeb"/>
      <path id="Path_2171" data-name="Path 2171" d="M417.6,69.38l.227.406a2.7,2.7,0,0,0,1.088,1.088l.406.227-.406.227a2.7,2.7,0,0,0-1.088,1.088l-.227.406-.219-.406a2.752,2.752,0,0,0-1.088-1.088l-.414-.227.414-.227a2.752,2.752,0,0,0,1.088-1.088Z" transform="translate(-94.555 -46.905)" fill="#ebebeb"/>
      <path id="Path_2172" data-name="Path 2172" d="M40.831,149.54l.227.414a2.7,2.7,0,0,0,1.088,1.088l.406.227-.406.219a2.751,2.751,0,0,0-1.088,1.088l-.227.414-.219-.414a2.8,2.8,0,0,0-1.088-1.088l-.414-.219.414-.227a2.752,2.752,0,0,0,1.12-1.088Z" transform="translate(-23.599 -62.001)" fill="#ebebeb"/>
      <path id="Path_2173" data-name="Path 2173" d="M90.213,339c6.055,5.763,12.224,13.579,20.552,12.792,9.164-.893,15.974-12.256,24.9-10.178,4.87,1.128,7.816,5.828,11.672,8.928,7.751,6.266,19.48,5.812,28.133.933s14.772-13.384,19.22-22.3c13.214-26.363,14.066-57.012,13.774-86.484l2.687-98.975,2.687,101.459c-.292,29.48.576,60.112,13.742,86.492,4.448,8.928,10.552,17.427,19.22,22.3s20.381,5.325,28.133-.933c3.855-3.117,6.842-7.816,11.672-8.928,8.928-2.086,15.771,9.318,24.926,10.178,8.328.812,14.5-7.029,20.552-12.792a53.7,53.7,0,0,1,31.184-14.091,164.312,164.312,0,1,0-311.43-2.849C65.862,324.3,80.042,329.327,90.213,339Z" transform="translate(-24.467 -54.389)" fill="#ebebeb"/>
      <path id="Path_2174" data-name="Path 2174" d="M355.15,256.613H456.008s-8.928-16.233-34.9-13.863c-24.8,2.256-26.055-7.987-38.66-9.245S359.354,241.938,355.15,256.613Z" transform="translate(-83.118 -77.793)" fill="#fff"/>
      <path id="Path_2175" data-name="Path 2175" d="M20,284.234H84.439s-5.682-10.381-22.3-8.872c-15.852,1.445-16.656-5.1-24.715-5.909S22.646,274.827,20,284.234Z" transform="translate(-20 -84.571)" fill="#fff"/>
      <path id="Path_2176" data-name="Path 2176" d="M177.794,386.732c.414-.268.812-.544,1.209-.812l.536-.406c.39-.3.812-.6,1.153-.909l.463-.381c.43-.373.86-.747,1.282-1.136l.244-.227a47.457,47.457,0,0,0,4.44-4.87h0c.463-.576.909-1.161,1.347-1.761h0c-5.446-.381-11.047.341-16.233-1.25-10.657-3.247-16.55-15.048-26.7-19.634-13.376-6.047-30.689,1.842-43.019-6.144-9.253-5.99-11.574-18.3-17.508-27.6-8.79-13.8-25.486-21.1-41.184-16.574q-.089,2.532-.089,5.073a164.391,164.391,0,0,0,7.52,49.142c.385.67.759,1.328,1.165,1.993h3.019c.7,0,1.388.065,2.078.122a1.739,1.739,0,0,1,.5.049c.7.057,1.4.13,2.086.219l.5.065c.69.1,1.38.195,2.07.317l.511.1c.682.13,1.364.26,2.037.406l.544.13c.657.154,1.323.308,1.98.487l.584.17c.633.179,1.274.365,1.907.568l.633.219c.609.2,1.218.406,1.818.633l.69.276c.576.219,1.153.446,1.713.69.26.105.511.227.763.341.536.243,1.071.479,1.623.739.284.13.56.284.812.43.5.243.982.5,1.469.755.308.17.6.357.909.528.446.26.893.511,1.331.812l1,.641,1.185.771c.373.26.731.536,1.1.812s.674.479,1,.73.812.682,1.274,1.023c.243.211.5.406.755.617.657.56,1.307,1.144,1.94,1.745,6.055,5.763,12.224,13.579,20.552,12.792,9.123-.877,15.933-12.24,24.861-10.162,4.87,1.128,7.816,5.828,11.672,8.928,7.751,6.266,19.48,5.812,28.133.933.609-.333,1.193-.7,1.778-1.071Z" transform="translate(-24.469 -91.032)" fill="#e0e0e0"/>
      <path id="Path_2177" data-name="Path 2177" d="M377.946,375.2l1.128-.933c.2-.162.422-.317.633-.479.357-.276.714-.552,1.08-.812l.674-.479,1.088-.747.69-.446c.373-.235.747-.479,1.128-.706.227-.146.463-.276.69-.406l1.169-.674.7-.373,1.217-.633.682-.325c.422-.2.812-.406,1.266-.6l.674-.292,1.315-.552.657-.26,1.364-.511.641-.219,1.412-.471.625-.187c.487-.146.966-.292,1.453-.422l.617-.162,1.485-.365.609-.138,1.518-.308.593-.114c.511-.089,1.023-.179,1.542-.252l.584-.089.86-.122c.641-.893,1.25-1.778,1.826-2.67a163.959,163.959,0,0,0,8.222-51.419q0-4.984-.3-9.886c-15.852-3.977-30.762,4.058-39.058,18.173-5.6,9.5-7.492,21.875-16.526,28.2-12.037,8.409-29.61,1.128-42.775,7.646-9.975,4.927-15.454,16.931-26.006,20.56-4.87,1.68-10.227,1.282-15.422,1.737h0c.43.633.868,1.266,1.323,1.883.114.17.235.333.357.5.373.5.747.99,1.128,1.469l.333.414c.479.6.982,1.185,1.493,1.753l.268.3c.43.471.868.933,1.315,1.38l.463.463c.455.455.925.893,1.4,1.323l.284.26c.568.5,1.153.974,1.745,1.437l.471.349c.463.357.942.7,1.429,1.031l.544.365c.633.414,1.282.812,1.956,1.193,8.685,4.87,20.381,5.325,28.133-.933,3.855-3.117,6.842-7.816,11.672-8.928,8.928-2.086,15.771,9.318,24.926,10.178,8.328.812,14.5-7.029,20.552-12.792.52-.5,1.055-.982,1.623-1.453C377.6,375.49,377.776,375.352,377.946,375.2Z" transform="translate(-68.212 -89.985)" fill="#e0e0e0"/>
    </g>
    <g id="freepik--Stars--inject-2" transform="translate(49.91 45.862)">
      <circle id="Ellipse_92" data-name="Ellipse 92" cx="13.458" cy="13.458" r="13.458" transform="translate(267.738 76.704) rotate(-87.87)" fill="#455a64"/>
      <path id="Path_2178" data-name="Path 2178" d="M409.26,118.5a2.2,2.2,0,1,1,2.143,2.24,2.2,2.2,0,0,1-2.143-2.24Z" transform="translate(-123.219 -59.921)" fill="#263238"/>
      <path id="Path_2179" data-name="Path 2179" d="M414.67,125.038a1.282,1.282,0,1,1,1.25,1.307,1.282,1.282,0,0,1-1.25-1.307Z" transform="translate(-124.238 -61.322)" fill="#263238"/>
      <path id="Path_2180" data-name="Path 2180" d="M412.454,130.16a.471.471,0,0,1,0,.942.463.463,0,0,1-.455-.479A.471.471,0,0,1,412.454,130.16Z" transform="translate(-123.735 -62.523)" fill="#263238"/>
      <path id="Path_2181" data-name="Path 2181" d="M370.245,199.47l.463.812a5.617,5.617,0,0,0,2.24,2.24l.812.463-.812.463a5.56,5.56,0,0,0-2.24,2.24l-.463.812-.463-.812a5.511,5.511,0,0,0-2.24-2.24l-.812-.463.812-.463a5.56,5.56,0,0,0,2.24-2.24Z" transform="translate(-115.209 -75.576)" fill="#455a64"/>
      <path id="Path_2182" data-name="Path 2182" d="M146.256,112.67l.812,1.461a9.74,9.74,0,0,0,3.872,3.864l1.453.812-1.453.812a9.74,9.74,0,0,0-3.872,3.872l-.812,1.453-.812-1.453a9.74,9.74,0,0,0-3.864-3.872l-1.461-.812,1.461-.812a9.74,9.74,0,0,0,3.864-3.864Z" transform="translate(-72.532 -59.23)" fill="#455a64"/>
      <path id="Path_2183" data-name="Path 2183" d="M83.224,53.56l.3.536a3.555,3.555,0,0,0,1.429,1.445l.536.292-.536.292a3.555,3.555,0,0,0-1.429,1.429l-.3.536-.292-.536A3.555,3.555,0,0,0,81.5,56.125l-.5-.308.536-.292A3.555,3.555,0,0,0,82.964,54.1Z" transform="translate(-61.398 -48.097)" fill="#455a64"/>
      <path id="Path_2184" data-name="Path 2184" d="M183.868,334.82l.146.268a1.834,1.834,0,0,0,.714.714l.268.146-.268.146a1.883,1.883,0,0,0-.714.714l-.146.268-.146-.268a1.834,1.834,0,0,0-.714-.714l-.268-.146.268-.146a1.777,1.777,0,0,0,.714-.714Z" transform="translate(-80.559 -101.067)" fill="#455a64"/>
      <path id="Path_2185" data-name="Path 2185" d="M147.6,214.24l.146.268a1.834,1.834,0,0,0,.714.714l.268.146-.268.146a1.835,1.835,0,0,0-.714.714l-.146.268-.146-.268a1.778,1.778,0,0,0-.714-.714l-.268-.146.268-.146a1.778,1.778,0,0,0,.714-.714Z" transform="translate(-73.728 -78.358)" fill="#455a64"/>
      <path id="Path_2186" data-name="Path 2186" d="M440.378,180.51l.146.268a1.778,1.778,0,0,0,.714.714l.268.146-.268.146a1.777,1.777,0,0,0-.714.714l-.146.268-.146-.268a1.777,1.777,0,0,0-.714-.714l-.268-.146.268-.146a1.778,1.778,0,0,0,.714-.714Z" transform="translate(-128.867 -72.006)" fill="#455a64"/>
      <path id="Path_2187" data-name="Path 2187" d="M59.139,179l.3.536a3.555,3.555,0,0,0,1.429,1.429l.536.292-.536.292A3.555,3.555,0,0,0,59.407,183l-.3.536L58.814,183a3.555,3.555,0,0,0-1.429-1.429l-.536-.292.536-.292a3.555,3.555,0,0,0,1.429-1.429Z" transform="translate(-56.85 -71.721)" fill="#455a64"/>
      <path id="Path_2188" data-name="Path 2188" d="M333.806,326l.3.536a3.587,3.587,0,0,0,1.42,1.429l.544.292-.544.292a3.587,3.587,0,0,0-1.42,1.429l-.3.536-.292-.536a3.612,3.612,0,0,0-1.429-1.429l-.536-.292.536-.292a3.612,3.612,0,0,0,1.429-1.429Z" transform="translate(-108.584 -99.406)" fill="#455a64"/>
      <path id="Path_2189" data-name="Path 2189" d="M354.116,46.83l.812,1.453a9.74,9.74,0,0,0,3.864,3.872l1.453.812-1.453.812a9.74,9.74,0,0,0-3.864,3.864l-.812,1.453-.812-1.453a9.74,9.74,0,0,0-3.872-3.864l-1.453-.812,1.453-.812a9.74,9.74,0,0,0,3.872-3.872Z" transform="translate(-111.678 -46.83)" fill="#455a64"/>
      <path id="Path_2190" data-name="Path 2190" d="M112.321,256.525a17.6,17.6,0,0,1-5.982-31.055,17.589,17.589,0,1,0,17.41,30.267A17.524,17.524,0,0,1,112.321,256.525Z" transform="translate(-64.148 -80.473)" fill="#455a64"/>
    </g>
    <g id="freepik--Plants--inject-2" transform="translate(71.511 294.372)">
      <path id="Path_2191" data-name="Path 2191" d="M403.362,424.067c1.2,1.713,3.531,1.144,4.61.1a8.693,8.693,0,0,0,1.948-4c.95-3.3,1.907-6.761,1.2-10.13a5.681,5.681,0,0,0-1.291-2.752,2.938,2.938,0,0,0-2.784-.925,4.289,4.289,0,0,0-2.435,2.557,24.2,24.2,0,0,0-2.386,10.357,8.433,8.433,0,0,0,1.136,4.8" transform="translate(-143.492 -363.037)" fill="#00c736"/>
      <g id="Group_2893" data-name="Group 2893" transform="translate(258.717 43.259)" opacity="0.2">
        <path id="Path_2192" data-name="Path 2192" d="M403.362,424.067c1.2,1.713,3.531,1.144,4.61.1a8.693,8.693,0,0,0,1.948-4c.95-3.3,1.907-6.761,1.2-10.13a5.681,5.681,0,0,0-1.291-2.752,2.938,2.938,0,0,0-2.784-.925,4.289,4.289,0,0,0-2.435,2.557,24.2,24.2,0,0,0-2.386,10.357,8.433,8.433,0,0,0,1.136,4.8" transform="translate(-402.209 -406.296)"/>
      </g>
      <path id="Path_2193" data-name="Path 2193" d="M408.6,438.637a10.333,10.333,0,0,1,6.445-.812,5.292,5.292,0,0,1,3.19,1.42,2.242,2.242,0,0,1,0,3.174,3.036,3.036,0,0,1-2.013.511c-1.7,0-3.588-.317-4.951.706-.812.584-1.3,1.558-2.224,1.842a2.2,2.2,0,0,1-2.435-1.071,3.75,3.75,0,0,1-.268-2.768,4.237,4.237,0,0,1,2.256-3Z" transform="translate(-144.242 -368.938)" fill="#00c736"/>
      <path id="Path_2194" data-name="Path 2194" d="M396.368,427.8a6.217,6.217,0,0,0,.974-5.73,11.128,11.128,0,0,0-3.4-4.927,18.36,18.36,0,0,0-6.079-3.588,6.494,6.494,0,0,0-2.735-.463,2.881,2.881,0,0,0-2.3,1.388c-.633,1.217,0,2.7.641,3.9a46.522,46.522,0,0,0,3.993,6.088,10.711,10.711,0,0,0,4.391,3.758c1.826.69,3.717.617,4.691-.649" transform="translate(-139.793 -364.315)" fill="#00c736"/>
      <path id="Path_2195" data-name="Path 2195" d="M403.518,456.338a3.68,3.68,0,0,0,.105-.812c.057-.568.122-1.274.211-2.118a30.856,30.856,0,0,1,.471-3.117,24.806,24.806,0,0,1,1.136-3.677,13.474,13.474,0,0,1,1.875-3.328,6.988,6.988,0,0,1,2.378-1.972,6.712,6.712,0,0,1,2-.625,4.471,4.471,0,0,0,.771-.105,3.1,3.1,0,0,0-.812,0,6.071,6.071,0,0,0-2.086.544,7,7,0,0,0-2.5,1.989,13.313,13.313,0,0,0-1.948,3.393,22.632,22.632,0,0,0-1.12,3.734,25.482,25.482,0,0,0-.414,3.157c-.073.9-.1,1.623-.106,2.135A3.14,3.14,0,0,0,403.518,456.338Z" transform="translate(-143.729 -369.489)" fill="#263238"/>
      <path id="Path_2196" data-name="Path 2196" d="M403.665,449.847a1.852,1.852,0,0,0,0-.365v-1.031c0-.893,0-2.192.049-3.791.081-3.206.349-7.622.885-12.484s1.25-9.229,1.9-12.37c.146-.812.3-1.494.446-2.11s.26-1.161.373-1.623l.243-1.006a2.063,2.063,0,0,0,.065-.357,1.242,1.242,0,0,0-.13.341l-.3.99c-.13.43-.268.958-.422,1.583s-.333,1.323-.5,2.1a117.12,117.12,0,0,0-1.989,12.386,121.5,121.5,0,0,0-.812,12.508c0,1.623,0,2.906.057,3.8,0,.422.041.763.057,1.039a1.4,1.4,0,0,0,.081.39Z" transform="translate(-143.729 -364.622)" fill="#263238"/>
      <path id="Path_2197" data-name="Path 2197" d="M401.076,441.914a6.114,6.114,0,0,0,0-1.079c-.041-.69-.138-1.688-.333-2.922a39.9,39.9,0,0,0-.95-4.253,37.845,37.845,0,0,0-1.786-5.04,26.784,26.784,0,0,0-5.227-8.117,12.629,12.629,0,0,0-1.226-1.136c-.187-.162-.357-.325-.528-.446l-.479-.333a5.51,5.51,0,0,0-.909-.576,29.6,29.6,0,0,1,2.979,2.654,28.231,28.231,0,0,1,5.1,8.117,41.172,41.172,0,0,1,1.794,4.992c.463,1.567.771,3,1.006,4.213s.357,2.208.43,2.9A8.6,8.6,0,0,0,401.076,441.914Z" transform="translate(-141.125 -365.243)" fill="#263238"/>
      <path id="Path_2198" data-name="Path 2198" d="M95.319,353.081a1.624,1.624,0,0,1,.471-.065,2.979,2.979,0,0,1,1.364.3,4.91,4.91,0,0,1,1.769,1.437,10.771,10.771,0,0,1,1.493,2.768,41.842,41.842,0,0,1,1.729,8.547,115.024,115.024,0,0,1,1.063,11.7h0c.195.657.633,1.437,1.355,1.493a1.972,1.972,0,0,0,1.031-.341c.341-.195.674-.414,1.006-.641a18.954,18.954,0,0,1,2.118-1.307,3.474,3.474,0,0,1,2.557-.414,3.247,3.247,0,0,1,1.859,1.924,5.454,5.454,0,0,1,.146,2.752,26.136,26.136,0,0,1-1.948,5.308c-.714,1.769-1.542,3.588-2.329,5.438l-1.209,2.816c-.2.471-.406.95-.617,1.429a2.727,2.727,0,0,0-.235.7,1.161,1.161,0,0,0,.057.674c.154.4.714.317,1.169.089l1.461-.649a28.687,28.687,0,0,1,3.052-1.193,10.666,10.666,0,0,1,3.312-.576,3.831,3.831,0,0,1,1.7.406,2.67,2.67,0,0,1,1.226,1.291,5.682,5.682,0,0,1,.162,3.49,18.028,18.028,0,0,1-1.1,3.336,44.229,44.229,0,0,1-3.417,6.29,9.246,9.246,0,0,0-.893,1.518.933.933,0,0,0,0,.739.617.617,0,0,0,.1.154c0,.041.114.138.106.106a.487.487,0,0,0,.292,0,24.118,24.118,0,0,0,3.206-1.713,20.128,20.128,0,0,1,3.385-1.623,6.185,6.185,0,0,1,1.9-.39,2.386,2.386,0,0,1,1.875.69,2.808,2.808,0,0,1,.714,1.875,7.89,7.89,0,0,1-.195,1.956,16.4,16.4,0,0,1-1.331,3.669,33.28,33.28,0,0,1-4.342,6.566,54.691,54.691,0,0,1-5.544,5.779,37.837,37.837,0,0,1-3.149,2.484l-3.247,2.516h0l-.1.073-.106-.041-3.807-1.469a37.787,37.787,0,0,1-3.742-1.55,54.729,54.729,0,0,1-6.972-3.945,33.281,33.281,0,0,1-6.047-5.049,15.713,15.713,0,0,1-2.33-3.133,7.614,7.614,0,0,1-.755-1.818,2.792,2.792,0,0,1,.146-2,2.435,2.435,0,0,1,1.623-1.209,6.5,6.5,0,0,1,1.932-.171A20.206,20.206,0,0,1,91,414.72a24.287,24.287,0,0,0,3.563.714.577.577,0,0,0,.284-.049s.057-.1.073-.138a.731.731,0,0,0,.049-.179.925.925,0,0,0-.211-.7,8.435,8.435,0,0,0-1.3-1.2,45.158,45.158,0,0,1-5.073-5.049,18,18,0,0,1-2.013-2.881,5.682,5.682,0,0,1-.812-3.393,2.662,2.662,0,0,1,.812-1.623,3.961,3.961,0,0,1,1.518-.868,10.649,10.649,0,0,1,3.336-.4,28.834,28.834,0,0,1,3.247.26l1.623.211c.5.081,1.055,0,1.088-.43a1.283,1.283,0,0,0-.138-.657,2.979,2.979,0,0,0-.438-.6q-.5-.609-1-1.193l-1.964-2.354-3.791-4.537a25.079,25.079,0,0,1-3.393-4.529,5.373,5.373,0,0,1-.649-2.67,3.247,3.247,0,0,1,1.226-2.378,3.466,3.466,0,0,1,2.541-.292,18.614,18.614,0,0,1,2.435.641c.381.122.763.235,1.144.325a1.916,1.916,0,0,0,1.088,0c.674-.252.868-1.128.868-1.818h0a114.393,114.393,0,0,1-2.338-11.493,42.84,42.84,0,0,1-.812-8.669,10.292,10.292,0,0,1,.6-3.076,5.008,5.008,0,0,1,1.226-1.916,3.011,3.011,0,0,1,1.2-.706,1.736,1.736,0,0,1,.471-.073,2.89,2.89,0,0,0-1.623.812,4.951,4.951,0,0,0-1.177,1.9,10.446,10.446,0,0,0-.56,3.052,43.216,43.216,0,0,0,.871,8.638,116.077,116.077,0,0,0,2.336,11.572h0a3.4,3.4,0,0,1-.195,1.169,1.493,1.493,0,0,1-.812.909,2.151,2.151,0,0,1-1.242,0c-.4-.1-.812-.211-1.169-.333a20.734,20.734,0,0,0-2.37-.625,3.247,3.247,0,0,0-2.354.3,2.971,2.971,0,0,0-1.1,2.151,5.146,5.146,0,0,0,.625,2.524,26.249,26.249,0,0,0,3.36,4.448l3.807,4.537,1.972,2.346,1,1.185a2.037,2.037,0,0,1,.657,1.534.812.812,0,0,1-.617.7,2.07,2.07,0,0,1-.86,0l-1.623-.2a30.419,30.419,0,0,0-3.247-.252,10.236,10.236,0,0,0-3.247.39,2.719,2.719,0,0,0-2.062,2.159,5.3,5.3,0,0,0,.812,3.149,17.54,17.54,0,0,0,1.98,2.825,44.319,44.319,0,0,0,5.032,4.992,8.574,8.574,0,0,1,1.355,1.266,1.331,1.331,0,0,1,.292,1,1.363,1.363,0,0,1-.073.26.649.649,0,0,1-.154.26.747.747,0,0,1-.568.179,22.571,22.571,0,0,1-3.669-.722,20.478,20.478,0,0,0-3.636-.6,6.1,6.1,0,0,0-1.81.162,2.037,2.037,0,0,0-1.339.99,2.435,2.435,0,0,0-.106,1.721,7.125,7.125,0,0,0,.706,1.713,15.623,15.623,0,0,0,2.273,3.052,33.125,33.125,0,0,0,5.974,4.984,56.085,56.085,0,0,0,6.924,3.912,38.478,38.478,0,0,0,3.717,1.542l3.8,1.461h-.162l3.2-2.508a39.868,39.868,0,0,0,3.117-2.557,54.644,54.644,0,0,0,5.5-5.739,32.745,32.745,0,0,0,4.294-6.493,15.789,15.789,0,0,0,1.3-3.579,7.111,7.111,0,0,0,.187-1.842,2.435,2.435,0,0,0-.6-1.623,2.013,2.013,0,0,0-1.567-.568,6.136,6.136,0,0,0-1.778.365,20.185,20.185,0,0,0-3.312,1.623,23.651,23.651,0,0,1-3.3,1.745.622.622,0,0,1-.82-.2.853.853,0,0,1-.138-.235,1.266,1.266,0,0,1,0-1.031,8.782,8.782,0,0,1,.933-1.623,44.733,44.733,0,0,0,3.393-6.225,17.953,17.953,0,0,0,1.08-3.247,5.316,5.316,0,0,0-.13-3.247,2.719,2.719,0,0,0-2.6-1.485,10.211,10.211,0,0,0-3.19.552,29.281,29.281,0,0,0-3.011,1.169l-1.469.657a2.118,2.118,0,0,1-.812.211.812.812,0,0,1-.812-.487,2.037,2.037,0,0,1,.187-1.623c.2-.479.406-.95.617-1.429l1.209-2.808L111,386.384a26.762,26.762,0,0,0,1.94-5.227,5.1,5.1,0,0,0-.122-2.6,3,3,0,0,0-1.623-1.753,3.247,3.247,0,0,0-2.346.39,20.236,20.236,0,0,0-2.086,1.282c-.341.227-.674.446-1.023.649a2.151,2.151,0,0,1-1.185.365,1.453,1.453,0,0,1-1.063-.625,3.182,3.182,0,0,1-.528-1.063h0c-.122-4.375-.584-8.287-1.006-11.68a41.471,41.471,0,0,0-1.623-8.523,10.625,10.625,0,0,0-1.445-2.752,5.016,5.016,0,0,0-1.721-1.445A2.979,2.979,0,0,0,95.319,353.081Z" transform="translate(-83.463 -353)" fill="#263238"/>
      <path id="Path_2199" data-name="Path 2199" d="M111.022,442.145c-1.136-7.484-3.766-24.926-5.373-36.371s-3.06-21.8-4.156-29.293c-.552-3.734-1-6.761-1.315-8.872-.146-1.039-.268-1.851-.349-2.435l-.089-.625v-.008a5.313,5.313,0,0,0,.114.625q.134.84.39,2.435c.349,2.086.812,5.114,1.388,8.855,1.136,7.492,2.622,17.857,4.229,29.285s4.2,28.887,5.3,36.379" transform="translate(-86.528 -355.134)" fill="#263238"/>
      <path id="Path_2200" data-name="Path 2200" d="M93.35,390.54a2,2,0,0,1,.406.276c.26.195.617.479,1.063.812.877.714,2.07,1.745,3.36,2.906l3.3,2.979,1,.893a2.117,2.117,0,0,1,.357.349,2.837,2.837,0,0,1-.414-.276c-.252-.195-.617-.479-1.055-.812-.868-.731-2.054-1.769-3.344-2.93l-3.336-2.955-.99-.868A2.182,2.182,0,0,1,93.35,390.54Z" transform="translate(-85.325 -360.07)" fill="#263238"/>
      <path id="Path_2201" data-name="Path 2201" d="M105.76,397.773c-.049-.041,1.956-2.589,4.48-5.682s4.618-5.592,4.667-5.552-1.956,2.6-4.48,5.682S105.809,397.814,105.76,397.773Z" transform="translate(-87.662 -359.316)" fill="#263238"/>
      <path id="Path_2202" data-name="Path 2202" d="M107.82,420.363a2.3,2.3,0,0,1,.4-.308l1.128-.812c.95-.666,2.265-1.583,3.677-2.654s2.662-2.07,3.563-2.8l1.063-.868a2.654,2.654,0,0,1,.406-.3,3.5,3.5,0,0,1-.349.365c-.235.219-.576.544-1.015.925-.877.771-2.11,1.8-3.531,2.865s-2.743,1.972-3.726,2.6c-.487.317-.885.56-1.169.73a1.883,1.883,0,0,1-.446.26Z" transform="translate(-88.05 -364.228)" fill="#263238"/>
      <path id="Path_2203" data-name="Path 2203" d="M94.63,415.74a1.761,1.761,0,0,1,.446.154l1.161.511c.982.438,2.33,1.055,3.807,1.753s2.816,1.347,3.774,1.826c.487.235.868.43,1.136.576a1.981,1.981,0,0,1,.406.235,1.623,1.623,0,0,1-.446-.154l-1.161-.511c-.982-.438-2.329-1.063-3.807-1.761s-2.817-1.339-3.782-1.818c-.479-.235-.86-.438-1.128-.576a2.15,2.15,0,0,1-.406-.235Z" transform="translate(-85.566 -364.816)" fill="#263238"/>
      <path id="Path_2204" data-name="Path 2204" d="M94,435.2a2.693,2.693,0,0,1,.56.211l1.493.641c1.258.56,2.987,1.339,4.87,2.216s3.628,1.688,4.87,2.281l1.461.714a3,3,0,0,1,.528.292,2.362,2.362,0,0,1-.56-.211l-1.5-.649c-1.258-.552-2.987-1.331-4.87-2.216s-3.628-1.68-4.87-2.273l-1.461-.714A3.081,3.081,0,0,1,94,435.2Z" transform="translate(-85.447 -368.481)" fill="#263238"/>
      <path id="Path_2205" data-name="Path 2205" d="M110.66,440.378a3.04,3.04,0,0,1,.5-.406l1.4-1.047c1.177-.885,2.8-2.11,4.553-3.506s3.32-2.711,4.44-3.661l1.331-1.128a2.866,2.866,0,0,1,.5-.39,3.162,3.162,0,0,1-.446.454c-.292.292-.73.7-1.282,1.185-1.1.99-2.638,2.321-4.4,3.717s-3.4,2.614-4.61,3.458c-.6.43-1.1.763-1.437.99a4.168,4.168,0,0,1-.552.333Z" transform="translate(-88.585 -367.547)" fill="#263238"/>
    </g>
    <g id="freepik--Rocket--inject-2" transform="translate(128.87 60.407)">
      <path id="Path_2206" data-name="Path 2206" d="M291.48,406.735a30.933,30.933,0,0,0-10.763-2.719c-10.552-.731-20.414-5.479-28.287-12.581q-.487-.438-.974-.852c-5.024-4.221-10.292-10.852-11.363-17.321-4.058-24.034-7.045-57.15-6.834-74.552h-2.435s-.268,42.3-8.117,78.067a11.29,11.29,0,0,1-6.769,7.914,37.2,37.2,0,0,0-18.084,16.29,11.493,11.493,0,0,1-11.721,5.747,27.6,27.6,0,0,0-30.973,22.548l153.99.081a31.785,31.785,0,0,0-17.67-22.621Z" transform="translate(-154.324 -108.811)" fill="#ebebeb"/>
      <path id="Path_2207" data-name="Path 2207" d="M208.572,250.434H176V139.973a16.233,16.233,0,0,1,16.233-16.233h0a16.233,16.233,0,0,1,16.233,16.233Z" transform="translate(-158.249 -75.859)" fill="#00c736"/>
      <path id="Path_2208" data-name="Path 2208" d="M208.572,250.434H176V139.973a16.233,16.233,0,0,1,16.233-16.233h0a16.233,16.233,0,0,1,16.233,16.233Z" transform="translate(-158.249 -75.859)" fill="#455a64"/>
      <path id="Path_2209" data-name="Path 2209" d="M208.6,141.511c0,.114-7.264.211-16.233.211s-16.233-.1-16.233-.211,7.305-.211,16.233-.211S208.6,141.389,208.6,141.511Z" transform="translate(-158.273 -79.167)" fill="#263238"/>
      <path id="Path_2210" data-name="Path 2210" d="M208.6,176.251c0,.122-7.264.211-16.233.211s-16.233-.089-16.233-.211,7.305-.211,16.233-.211S208.6,176.137,208.6,176.251Z" transform="translate(-158.273 -85.709)" fill="#263238"/>
      <path id="Path_2211" data-name="Path 2211" d="M204.951,169.757c-.114,0-.211-6.315-.211-14.1s.1-14.1.211-14.1.211,6.307.211,14.1S205.081,169.757,204.951,169.757Z" transform="translate(-163.661 -79.215)" fill="#263238"/>
      <path id="Path_2212" data-name="Path 2212" d="M199.779,151.4a1.144,1.144,0,1,1-1.144-1.144A1.144,1.144,0,0,1,199.779,151.4Z" transform="translate(-162.296 -80.854)" fill="#263238"/>
      <path id="Path_2213" data-name="Path 2213" d="M199.779,163.414a1.144,1.144,0,1,1-1.144-1.144A1.144,1.144,0,0,1,199.779,163.414Z" transform="translate(-162.296 -83.116)" fill="#263238"/>
      <path id="Path_2214" data-name="Path 2214" d="M208.6,246.951c0,.114-7.264.211-16.233.211s-16.233-.1-16.233-.211,7.305-.211,16.233-.211S208.6,246.813,208.6,246.951Z" transform="translate(-158.273 -99.024)" fill="#263238"/>
      <path id="Path_2215" data-name="Path 2215" d="M204.951,240.457c-.114,0-.211-6.315-.211-14.1s.1-14.1.211-14.1.211,6.307.211,14.1S205.081,240.457,204.951,240.457Z" transform="translate(-163.661 -92.53)" fill="#263238"/>
      <circle id="Ellipse_93" data-name="Ellipse 93" cx="1.144" cy="1.144" r="1.144" transform="translate(35.194 126.759)" fill="#263238"/>
      <circle id="Ellipse_94" data-name="Ellipse 94" cx="1.144" cy="1.144" r="1.144" transform="translate(35.194 136.515)" fill="#263238"/>
      <path id="Path_2216" data-name="Path 2216" d="M176.16,211.951c0-.114,7.305-.211,16.233-.211s16.233.1,16.233.211-7.264.211-16.233.211S176.16,212.024,176.16,211.951Z" transform="translate(-158.279 -92.432)" fill="#263238"/>
      <path id="Path_2217" data-name="Path 2217" d="M187.221,205.457c-.114,0-.211-6.315-.211-14.1s.1-14.1.211-14.1.211,6.307.211,14.1S187.343,205.457,187.221,205.457Z" transform="translate(-160.322 -85.939)" fill="#263238"/>
      <path id="Path_2218" data-name="Path 2218" d="M192,187.053a1.144,1.144,0,1,0,.332-.814A1.144,1.144,0,0,0,192,187.053Z" transform="translate(-161.262 -87.566)" fill="#263238"/>
      <path id="Path_2219" data-name="Path 2219" d="M192,199.064a1.144,1.144,0,1,0,1.144-1.144A1.144,1.144,0,0,0,192,199.064Z" transform="translate(-161.262 -89.83)" fill="#263238"/>
      <path id="Path_2220" data-name="Path 2220" d="M178.665,141.791a2.239,2.239,0,0,1,0-.649,15.344,15.344,0,0,1,.211-1.761,20.292,20.292,0,0,1,1.794-5.568,16.38,16.38,0,0,1,1.737-2.727,12.72,12.72,0,0,1,1.867-1.875,9.6,9.6,0,0,1,.812-.593,4.058,4.058,0,0,1,.657-.39,2.2,2.2,0,0,1,.592-.268c.041.073-.771.511-1.875,1.485a13.944,13.944,0,0,0-1.761,1.883,18.483,18.483,0,0,0-1.664,2.679,23.872,23.872,0,0,0-1.867,5.43C178.851,140.874,178.738,141.791,178.665,141.791Z" transform="translate(-158.746 -76.654)" fill="#fafafa"/>
      <path id="Path_2221" data-name="Path 2221" d="M194.358,126.229c0,.114-.487.292-1.136.406s-1.185.106-1.2,0,.487-.3,1.136-.414S194.341,126.107,194.358,126.229Z" transform="translate(-161.266 -76.311)" fill="#fafafa"/>
      <path id="Path_2222" data-name="Path 2222" d="M280.59,250.434h32.54V139.973a16.233,16.233,0,0,0-16.274-16.233h0a16.233,16.233,0,0,0-16.233,16.233Z" transform="translate(-177.946 -75.859)" fill="#00c736"/>
      <path id="Path_2223" data-name="Path 2223" d="M280.59,250.434h32.54V139.973a16.233,16.233,0,0,0-16.274-16.233h0a16.233,16.233,0,0,0-16.233,16.233Z" transform="translate(-177.946 -75.859)" fill="#455a64"/>
      <path id="Path_2224" data-name="Path 2224" d="M280.59,141.511c0-.122,7.305-.211,16.233-.211s16.233.089,16.233.211-7.264.211-16.233.211S280.59,141.625,280.59,141.511Z" transform="translate(-177.946 -79.167)" fill="#263238"/>
      <path id="Path_2225" data-name="Path 2225" d="M280.59,176.251c0-.114,7.305-.211,16.233-.211s16.233.1,16.233.211-7.264.211-16.233.211S280.59,176.373,280.59,176.251Z" transform="translate(-177.946 -85.709)" fill="#263238"/>
      <path id="Path_2226" data-name="Path 2226" d="M291.651,169.757c-.114,0-.211-6.315-.211-14.1s.1-14.1.211-14.1.211,6.307.211,14.1S291.773,169.757,291.651,169.757Z" transform="translate(-179.989 -79.215)" fill="#263238"/>
      <path id="Path_2227" data-name="Path 2227" d="M296.4,151.4a1.144,1.144,0,1,0,1.144-1.144A1.144,1.144,0,0,0,296.4,151.4Z" transform="translate(-180.923 -80.854)" fill="#263238"/>
      <path id="Path_2228" data-name="Path 2228" d="M296.4,163.414a1.144,1.144,0,1,0,1.144-1.144A1.144,1.144,0,0,0,296.4,163.414Z" transform="translate(-180.923 -83.116)" fill="#263238"/>
      <path id="Path_2229" data-name="Path 2229" d="M280.59,246.951c0-.114,7.305-.211,16.233-.211s16.233.1,16.233.211-7.264.211-16.233.211S280.59,247.04,280.59,246.951Z" transform="translate(-177.946 -99.024)" fill="#263238"/>
      <path id="Path_2230" data-name="Path 2230" d="M291.651,240.457c-.114,0-.211-6.315-.211-14.1s.1-14.1.211-14.1.243,6.282.243,14.074S291.773,240.457,291.651,240.457Z" transform="translate(-179.989 -92.53)" fill="#263238"/>
      <circle id="Ellipse_95" data-name="Ellipse 95" cx="1.144" cy="1.144" r="1.144" transform="translate(115.477 126.759)" fill="#263238"/>
      <circle id="Ellipse_96" data-name="Ellipse 96" cx="1.144" cy="1.144" r="1.144" transform="translate(115.477 136.515)" fill="#263238"/>
      <path id="Path_2231" data-name="Path 2231" d="M313.027,211.951c0,.114-7.264.211-16.233.211s-16.233-.1-16.233-.211,7.305-.211,16.233-.211S313.027,211.8,313.027,211.951Z" transform="translate(-177.94 -92.432)" fill="#263238"/>
      <path id="Path_2232" data-name="Path 2232" d="M309.391,205.457c-.114,0-.211-6.315-.211-14.1s.1-14.1.211-14.1.211,6.307.211,14.1S309.513,205.457,309.391,205.457Z" transform="translate(-183.33 -85.939)" fill="#263238"/>
      <path id="Path_2233" data-name="Path 2233" d="M304.209,187.053a1.145,1.145,0,1,1-.332-.814A1.145,1.145,0,0,1,304.209,187.053Z" transform="translate(-181.963 -87.566)" fill="#263238"/>
      <path id="Path_2234" data-name="Path 2234" d="M304.209,199.064a1.144,1.144,0,1,1-1.144-1.144,1.144,1.144,0,0,1,1.144,1.144Z" transform="translate(-181.963 -89.83)" fill="#263238"/>
      <path id="Path_2235" data-name="Path 2235" d="M316.218,141.791c-.065,0-.187-.909-.5-2.354a23.953,23.953,0,0,0-1.875-5.43,17.177,17.177,0,0,0-1.664-2.679,13.928,13.928,0,0,0-1.753-1.883c-1.1-.974-1.924-1.412-1.883-1.485a2.062,2.062,0,0,1,.6.268,4.058,4.058,0,0,1,.657.39,9.6,9.6,0,0,1,.812.593,12.719,12.719,0,0,1,1.867,1.875,16.382,16.382,0,0,1,1.737,2.727A20.487,20.487,0,0,1,316,139.38a15.7,15.7,0,0,1,.219,1.761,1.768,1.768,0,0,1,0,.649Z" transform="translate(-183.209 -76.654)" fill="#fff"/>
      <path id="Path_2236" data-name="Path 2236" d="M301.81,126.229c0-.122.56-.122,1.209,0s1.153.292,1.136.414-.56.114-1.209,0S301.794,126.342,301.81,126.229Z" transform="translate(-181.942 -76.311)" fill="#fff"/>
      <path id="Path_2237" data-name="Path 2237" d="M232.664,69.133,221.252,90.675a43.928,43.928,0,0,0-5.122,20.6V261.15l20.008,12.784h13.871l18.668-12.784V111.932a44.041,44.041,0,0,0-4.765-19.821L252.3,69.011a7.743,7.743,0,0,0-6.924-4.261h-5.747A7.751,7.751,0,0,0,232.664,69.133Z" transform="translate(-165.806 -64.75)" fill="#00c736"/>
      <path id="Path_2238" data-name="Path 2238" d="M204.454,271.242H154.13s0-22.183,21.047-37.97,29.285-51.492,29.285-51.492Z" transform="translate(-154.13 -86.79)" fill="#00c736"/>
      <path id="Path_2239" data-name="Path 2239" d="M280.85,271.242h50.324s0-22.183-21.047-37.97S280.85,181.78,280.85,181.78Z" transform="translate(-177.995 -86.79)" fill="#00c736"/>
      <path id="Path_2240" data-name="Path 2240" d="M204.454,271.242H154.13s0-22.183,21.047-37.97,29.285-51.492,29.285-51.492Z" transform="translate(-154.13 -86.79)" opacity="0.2"/>
      <path id="Path_2241" data-name="Path 2241" d="M280.85,271.242h50.324s0-22.183-21.047-37.97S280.85,181.78,280.85,181.78Z" transform="translate(-177.995 -86.79)" opacity="0.2"/>
      <path id="Path_2242" data-name="Path 2242" d="M220.641,184.021c-.114,0-.211-11.063-.211-24.715s.1-24.715.211-24.715.252,11.063.252,24.683S220.755,184.021,220.641,184.021Z" transform="translate(-166.616 -77.903)" fill="#fafafa"/>
      <path id="Path_2243" data-name="Path 2243" d="M221.315,116.53a12.082,12.082,0,0,1,0,4.5,12.084,12.084,0,0,1,0-4.5Z" transform="translate(-166.739 -74.502)" fill="#fafafa"/>
      <path id="Path_2244" data-name="Path 2244" d="M237.73,69.38c.106.049-3.336,6.956-7.678,15.422S222.1,100.094,222,100.037s3.336-6.956,7.678-15.422S237.624,69.323,237.73,69.38Z" transform="translate(-166.911 -65.622)" fill="#fafafa"/>
      <path id="Path_2245" data-name="Path 2245" d="M199.929,210.61a.6.6,0,0,1,0,.195,4.253,4.253,0,0,1-.1.576l-.179.925a9.691,9.691,0,0,1-.308,1.258,32.126,32.126,0,0,1-3.133,7.605,54.285,54.285,0,0,1-7.248,9.813c-3.092,3.409-6.786,6.859-10.69,10.43a75.771,75.771,0,0,0-9.967,11.023,60.944,60.944,0,0,0-3.539,5.438,54.308,54.308,0,0,0-2.524,5.065,45.456,45.456,0,0,0-2.573,7.768c-.244.933-.341,1.68-.463,2.175l-.122.568a.52.52,0,0,1-.057.195.707.707,0,0,1,0-.195l.081-.576c.089-.5.162-1.258.381-2.208a43.019,43.019,0,0,1,2.435-7.849,52.231,52.231,0,0,1,2.492-5.113,60.226,60.226,0,0,1,3.531-5.5,75.185,75.185,0,0,1,10-11.112c3.9-3.563,7.6-7,10.69-10.381a55.269,55.269,0,0,0,7.305-9.7,34.089,34.089,0,0,0,3.247-7.492,12.326,12.326,0,0,0,.341-1.242c.081-.357.154-.657.211-.917s.106-.414.146-.568a.6.6,0,0,1,.041-.187Z" transform="translate(-155.051 -92.22)" fill="#fafafa"/>
      <path id="Path_2246" data-name="Path 2246" d="M249.61,123.686h-8.677a9.513,9.513,0,0,1-9.513-9.513h0a9.513,9.513,0,0,1,9.513-9.513h8.677a9.5,9.5,0,0,1,9.513,9.513h0a9.513,9.513,0,0,1-9.513,9.513Z" transform="translate(-168.686 -72.266)" fill="#fff"/>
      <path id="Path_2247" data-name="Path 2247" d="M216.13,305.5l20.008,12.776h13.871L268.661,305.5V300.23H216.13V305.5" transform="translate(-165.806 -109.098)" opacity="0.4"/>
    </g>
  </g>
</svg>
