<svg xmlns="http://www.w3.org/2000/svg" width="261.057" height="251.191" viewBox="0 0 261.057 251.191">
  <g id="Team_spirit-amico" data-name="Team spirit-amico" transform="translate(-16.21 -27.84)">
    <g id="freepik--Floor--inject-27" transform="translate(16.21 138.402)">
      <ellipse id="freepik--floor--inject-27-2" data-name="freepik--floor--inject-27" cx="130.528" cy="70.315" rx="130.528" ry="70.315" fill="#f3f3f4"/>
    </g>
    <g id="freepik--Shadows--inject-27" transform="translate(33.403 192.897)">
      <ellipse id="freepik--Shadow--inject-27" cx="36.801" cy="21.246" rx="36.801" ry="21.246" transform="translate(76.121)" fill="#e0e0e0"/>
      <ellipse id="freepik--shadow--inject-27-2" data-name="freepik--shadow--inject-27" cx="40.418" cy="23.335" rx="40.418" ry="23.335" transform="translate(0 7.108)" fill="#e0e0e0"/>
      <ellipse id="freepik--shadow--inject-27-3" data-name="freepik--shadow--inject-27" cx="40.418" cy="23.335" rx="40.418" ry="23.335" transform="translate(140.773 9.231)" fill="#e0e0e0"/>
    </g>
    <g id="freepik--Characters--inject-27" transform="translate(44.096 27.84)">
      <g id="freepik--girl-arm--inject-27" transform="translate(46.73 41.339)">
        <path id="Path_2273" data-name="Path 2273" d="M174.794,130.485l-22.712-10.08L151.53,108c4.411-.265,5.806.695,7.791,1.924,2.906,1.792,12.9,6.937,17.612,9.148l5.354-14.888a20.952,20.952,0,0,0,4.516-1.1,4.259,4.259,0,0,1,3.358.221s-4.737,22.938-6.523,27.184C182.618,132.895,178.709,132.194,174.794,130.485Z" transform="translate(-151.53 -102.81)" fill="#ffa8a7"/>
        <path id="Path_2274" data-name="Path 2274" d="M151.54,112.006a10.015,10.015,0,0,1,6.926,1.1c3.981,2,13.024,6.909,13.024,6.909s-2.757,7.538-5.994,11.552L154.071,126.7Z" transform="translate(-151.534 -106.845)" fill="#455a64"/>
      </g>
      <g id="freepik--character-boy-center--inject-27" transform="translate(65.129)">
        <g id="freepik--Character--inject-27" transform="translate(0)">
          <path id="Path_2275" data-name="Path 2275" d="M216.057,240.635c.138-6.65,1.439-11.227,1.594-13.068,0,0-.491-39.541-.491-45.954l33.713-1.373s-1.1,41.493-1.1,46.985-3.5,33.084-4.527,43.941c-1.952,2.547-4.235,2.724-7.3.232,0,0-.254-1.516-.651-6.523-.463-5.729-1.379-19.068-1.434-24.681-.066-6.915-.121-9.964.077-13.294.237-3.81-.678-29.517-.678-29.517s-4.224,24.521-5.277,32.847c-1.2,9.545-5.062,37.5-5.073,43.3v3.557c0,3.143-.088,3.976.414,5.194.882,2.128-6.655,3.463-7,1.952l-.811-6.247v-.182h0v-3.959C217.54,267.919,215.858,250.274,216.057,240.635Z" transform="translate(-198.868 -96.206)" fill="#b16668"/>
          <path id="Path_2276" data-name="Path 2276" d="M275.787,359.8a2.531,2.531,0,0,1-.1,1.864c-.259.551-3.1,2.15-6.942,1.891a15.952,15.952,0,0,1-7.935-2.757,9.141,9.141,0,0,0-4.885-1.257c-1.9-.1-4.411-1.059-4.814-1.946a4.355,4.355,0,0,1,.061-2.421Z" transform="translate(-214.525 -174.679)" fill="#263238"/>
          <path id="Path_2277" data-name="Path 2277" d="M260.367,341.477l.3-.066a1.219,1.219,0,0,1,.507-.028.987.987,0,0,1,.474.32,9.464,9.464,0,0,1,.981,1.538,11.422,11.422,0,0,0,4.334,3.391c1.257.673,2.487,1.2,3.777,1.781s3.071.954,4.108,1.654a2.78,2.78,0,0,1,0,4.577,13.557,13.557,0,0,1-9.457.651c-2.206-.629-4.7-3.005-7.615-3.237-1.858-.143-5.371-.667-6.567-2.079-.441-.623.149-2.608.634-4.318.551-1.869.926-4.8,1.544-4.637a9.98,9.98,0,0,0,.11,1c.066.287.375.551.551.772l.717.827a2.776,2.776,0,0,0,3.479.992c.039,0-.331-1.467-.369-1.61a.706.706,0,0,1-.028-.353.552.552,0,0,1,.243-.27,5.873,5.873,0,0,1,2.272-.91Z" transform="translate(-214.577 -168.33)" fill="#455a64"/>
          <path id="Path_2278" data-name="Path 2278" d="M232.627,374.416a3.107,3.107,0,0,1-.094,2.068,6.51,6.51,0,0,1-4.6,1.941,11.27,11.27,0,0,1-6.617-1.163,4.607,4.607,0,0,1-2.47-3.612c-.149-1.522,0-2.983-.7-4.152-.667-1.1-1.737-2.294-1.969-2.884a5.869,5.869,0,0,1,0-3.093Z" transform="translate(-198.83 -178.424)" fill="#263238"/>
          <path id="Path_2279" data-name="Path 2279" d="M225.444,356.845a6.116,6.116,0,0,0,.309,1.693,15.5,15.5,0,0,0,1.654,3.341,14.205,14.205,0,0,0,1.1,1.572c.805.959,1.809,1.742,2.663,2.663a5.448,5.448,0,0,1,1.654,3.275c.116,2.09-2.156,2.8-3.9,3.115a12.842,12.842,0,0,1-5.679-.287,5.216,5.216,0,0,1-3.821-4.169c-.1-.579-.061-1.174-.132-1.759a8.133,8.133,0,0,0-1.627-3.656,11.073,11.073,0,0,1-1.246-2c-.551-1.29-.11-2.757.243-4.036.3-1.1.64-2.376,1.031-2.272,0,.579,0,.64.414,1.031.551.5.551,1.241,1.1,1.654a7.444,7.444,0,0,1-.386-1.489.849.849,0,0,1,.116-.59,1.565,1.565,0,0,1,.645-.342,12.524,12.524,0,0,1,2.536-.579,7.5,7.5,0,0,1,2.481,0,1.053,1.053,0,0,1,.623.358,1.274,1.274,0,0,1,.221.717C225.444,355.428,225.4,356.293,225.444,356.845Z" transform="translate(-198.921 -174.115)" fill="#455a64"/>
          <path id="Path_2280" data-name="Path 2280" d="M231.171,367.831a5.933,5.933,0,0,0-3.474-.491,5.718,5.718,0,0,0-2.713.954.629.629,0,0,1-.8-.066h0a.579.579,0,0,1,.061-.888,5.84,5.84,0,0,1,3.049-1.1c2.349-.165,3.038.237,3.038.237S231.391,367.136,231.171,367.831Z" transform="translate(-202.441 -179.626)" fill="#f5f5f5"/>
          <path id="Path_2281" data-name="Path 2281" d="M234.152,371.707a7.519,7.519,0,0,0-3.86-.391,5.409,5.409,0,0,0-2.636,1,.618.618,0,0,1-.8-.061h0a.584.584,0,0,1,.061-.888,6.11,6.11,0,0,1,3.115-1.219c2.349-.165,2.961.314,2.961.314a1.93,1.93,0,0,1,1.158,1.241Z" transform="translate(-203.641 -181.384)" fill="#f5f5f5"/>
          <path id="Path_2282" data-name="Path 2282" d="M225.612,362.07a5.861,5.861,0,0,1,2.95.248c.414.232.684.888.419,1.053a5.343,5.343,0,0,0-2.614-.358,7.758,7.758,0,0,0-2.542.695c-.2.088-.441.215-.645.331a.551.551,0,0,1-.772-.243h0a.513.513,0,0,1,.2-.667,7.461,7.461,0,0,1,3-1.059Z" transform="translate(-201.702 -177.736)" fill="#f5f5f5"/>
          <path id="Path_2283" data-name="Path 2283" d="M272.788,348.6a1.726,1.726,0,0,0-1.373-.921,5.023,5.023,0,0,0-3.264,1.23.695.695,0,0,0,.1,1.147h0a.689.689,0,0,0,.794-.088A5.288,5.288,0,0,1,272.788,348.6Z" transform="translate(-222.129 -171.308)" fill="#f5f5f5"/>
          <path id="Path_2284" data-name="Path 2284" d="M277.094,351.318a1.985,1.985,0,0,0-1.627-.838,6.214,6.214,0,0,0-3.573,1.334.678.678,0,0,0,.094,1.1h0a.656.656,0,0,0,.761-.088A5.31,5.31,0,0,1,277.094,351.318Z" transform="translate(-223.816 -172.575)" fill="#f5f5f5"/>
          <path id="Path_2285" data-name="Path 2285" d="M282.41,353.811a2.206,2.206,0,0,0-1.687-.761A5.922,5.922,0,0,0,277.3,354.4a.678.678,0,0,0,.094,1.1h0a.656.656,0,0,0,.761-.088,5.051,5.051,0,0,1,4.251-1.6Z" transform="translate(-226.243 -173.728)" fill="#f5f5f5"/>
          <path id="Path_2286" data-name="Path 2286" d="M229.6,232.083l3.375-22.348,1.428,17.954c.116,1.467-.259,6.9-.165,11.392s2.046,24.681,2.046,24.681a8.955,8.955,0,0,0,8.905,0c.138-.414,2.845-23.391,3.088-26.341.3-3.65.833-6.953.954-10.063s.342-9.539.292-14.447.419-32.671.419-32.671l-34.386.1-.43,46.561c-.21,1.042-1.384,10.813-1.075,15.7s2.382,27.625,2.382,27.625,3.1,1.98,7.764,0c0,0,2.889-23.159,3.722-27.526S229.3,234.046,229.6,232.083Z" transform="translate(-197.951 -96.206)" fill="#37474f"/>
          <path id="Path_2287" data-name="Path 2287" d="M248.41,223.264l1.042-9.479a20.683,20.683,0,0,0,9.236-3.386s-.551,1.213-3.435,3.1a13.1,13.1,0,0,1-3.794,1.687l-1.07,7.543-.551,18.152Z" transform="translate(-213.389 -109.735)" fill="#263238"/>
          <path id="Path_2288" data-name="Path 2288" d="M264.5,92.48c4.455,0,6.457.844,8.629,3.49s12.5,16.542,12.5,16.542,7.3-6.942,11.028-10.394c2.327-2.393,4.61-4.737,7.108-5.453,2.608-.75,1.307,4.1,2.343,4.5l-3.082,4.488s-11.375,15.142-15.351,17.491c-1.379.816-2.834,2.57-6.677-.551-5.045-4.108-14.2-14.419-14.2-14.419Z" transform="translate(-220.607 -56.837)" fill="#b16668"/>
          <path id="Path_2289" data-name="Path 2289" d="M261.22,92.135c4.113-.695,6.722-.954,10.438,2.956s10.907,14.943,10.907,14.943-.425,5.663-7.72,7.88l-11.276-7.88Z" transform="translate(-219.136 -56.498)" fill="#455a64"/>
          <path id="Path_2290" data-name="Path 2290" d="M213.766,145.528c4.626,3.369,25.6,7.1,35.334,0,0,0-.226-27.19-.987-41.581-.039-.651-.083-1.285-.149-1.9a5.781,5.781,0,0,0-.072-.612,19.672,19.672,0,0,0-.491-2.547c-.039-.138-.083-.276-.127-.414a8.55,8.55,0,0,0-.32-.915c-.061-.16-.127-.32-.2-.474a4.474,4.474,0,0,0-.215-.43.464.464,0,0,0-.033-.077c-.072-.138-.154-.276-.232-.408s-.176-.287-.281-.436-.187-.27-.281-.392-.226-.276-.347-.408a4.518,4.518,0,0,0-.358-.369l-.254-.237a2.377,2.377,0,0,0-.254-.215c-.11-.094-.232-.182-.347-.265a8.4,8.4,0,0,0-1.2-.7,3.653,3.653,0,0,0-.364-.165c-.028,0-.066,0-.083-.039l-.436-.165a7.679,7.679,0,0,0-.761-.248c-.259-.072-.551-.138-.811-.2a5.388,5.388,0,0,0-1.037,0h-1.6c-3.639.16-7.483-.551-11.673-.044-.276.039-9.043,1.02-11.067,1.753-1.886.689-3.584,4.042-4,5.9-1.252,5.47,4.262,23.231,4.262,23.231Z" transform="translate(-196.578 -56.664)" fill="#00c736"/>
          <path id="Path_2291" data-name="Path 2291" d="M236.354,93.31c-.2.678,1.1,2.718,3.2,3.661a11.091,11.091,0,0,0,7.168.7c1.974-.678,4.356-3.137,2.277-5.327h0c-3.568.116-7.334-.551-11.431-.05C237.556,92.29,236.558,92.632,236.354,93.31Z" transform="translate(-207.972 -56.669)" fill="#455a64"/>
          <path id="Path_2292" data-name="Path 2292" d="M248.673,117.38c-3.529,1.23-9.324,2.206-16.614,2.63a96.553,96.553,0,0,1-20.1-1.1,129.736,129.736,0,0,0,3.1,13c12.743,2.6,27.322.551,34.055-1.583C248.992,125.6,248.86,121.229,248.673,117.38Z" transform="translate(-197.038 -68.007)" opacity="0.3"/>
          <path id="Path_2293" data-name="Path 2293" d="M233.773,53l-1.29,1.412-.662-7.29a3.463,3.463,0,0,0-2.867,1.009c-1.23,1.257-.551,5.2.993,9.06,0,0,1.494,7.025,2.1,8.177a3.154,3.154,0,0,0,1.836,1.483Z" transform="translate(-204.376 -36.479)" fill="#263238"/>
          <path id="Path_2294" data-name="Path 2294" d="M232.627,54.018c-.551.336-1.373-.75-2.068-1.478a2.454,2.454,0,0,0-4.108.662c-1.136,2.388,1,5.657,2.8,6.22,3.082.97,3.546-1.009,3.546-1.009L233,69.76c3.231,5.845,14.166,2.851,10.069-1.026V65.851a31.983,31.983,0,0,0,4.654,0c2.272-.347,3.2-1.919,3.893-4.378,1.1-3.943,1.522-7.13.584-14.888-1.026-8.5-10.918-8.591-16.261-5.233S232.627,54.018,232.627,54.018Z" transform="translate(-203.396 -32.976)" fill="#b16668"/>
          <path id="Path_2295" data-name="Path 2295" d="M233.025,33.834a27.52,27.52,0,0,1,5.834-1.759c4.317-.937,8.712-1.8,12.649-3.788a2.757,2.757,0,0,1,1.544-.447c1.042.138,1.494,1.4,1.538,2.443a8.585,8.585,0,0,1-.375,2.873,1.654,1.654,0,0,1,2.321.039,2.856,2.856,0,0,1,.667,2.421,6.1,6.1,0,0,1-3.479,4.411,13.7,13.7,0,0,1-5.69,1.136,38.929,38.929,0,0,1-8.122-.634,5.8,5.8,0,0,0-1.969-.143,1.776,1.776,0,0,0-1.467,1.169c-.287,1.075-.584,8.376-2.079,8.431-.276,0-1.34-1.836-2.035-2.492-.871-.822-1.748-7.08-1.9-8.238a.551.551,0,0,0-.121-.243c-.982-1.379.171-3.694,1.384-4.45A12.558,12.558,0,0,1,233.025,33.834Z" transform="translate(-205.117 -27.84)" fill="#263238"/>
          <path id="Path_2296" data-name="Path 2296" d="M228.662,46.059a2.057,2.057,0,1,1-3.132-2.669Z" transform="translate(-202.905 -34.815)" fill="#263238"/>
          <path id="Path_2297" data-name="Path 2297" d="M249.28,84.319s-5.067-.485-6.837-1.428A5.823,5.823,0,0,1,240,80.47a7.945,7.945,0,0,0,1.39,2.856c1.3,1.654,7.9,2.553,7.9,2.553Z" transform="translate(-209.616 -51.449)" fill="#9a4a4d"/>
          <path id="Path_2298" data-name="Path 2298" d="M252.35,62.829a1.015,1.015,0,1,1-1.015-1.059A1.037,1.037,0,0,1,252.35,62.829Z" transform="translate(-214.247 -43.061)" fill="#263238"/>
          <path id="Path_2299" data-name="Path 2299" d="M250.183,56.19l-2.173,1.2a1.3,1.3,0,0,1,.507-1.726,1.213,1.213,0,0,1,1.665.529Z" transform="translate(-213.143 -40.254)" fill="#263238"/>
          <path id="Path_2300" data-name="Path 2300" d="M254.782,76.41l2.84,1.059a1.489,1.489,0,0,1-1.93.921,1.588,1.588,0,0,1-.91-1.98Z" transform="translate(-216.21 -49.628)" fill="#9a4a4d"/>
          <path id="Path_2301" data-name="Path 2301" d="M268.66,56.6l-1.98-1.522a1.2,1.2,0,0,1,1.72-.281,1.312,1.312,0,0,1,.259,1.8Z" transform="translate(-221.585 -39.823)" fill="#263238"/>
          <path id="Path_2302" data-name="Path 2302" d="M267.446,62.3a1.026,1.026,0,0,1-1.015,1.053,1.053,1.053,0,1,1,1.015-1.053Z" transform="translate(-220.984 -42.828)" fill="#263238"/>
          <path id="Path_2303" data-name="Path 2303" d="M260.28,61.85l.336,6.1,3.187-1.086Z" transform="translate(-218.714 -43.096)" fill="#9a4a4d"/>
          <path id="Path_2304" data-name="Path 2304" d="M208.29,93.9c-6.771.32-8.773,1.384-11.028,6.242-1.654,3.551-9.925,25.486-11.442,29.412-1.329,3.5-1.505,5.3,1.4,7.692s5.823,4.621,8.822,6.832c1.825,1.351,3.463,2.818,5.3,4.141a102,102,0,0,0,8.822,6.159c3.694,2.1,10.372,4.863,13.89,1.015a2.73,2.73,0,0,0,.959-2.757,3.309,3.309,0,0,0-1.505-1.654,12.6,12.6,0,0,0-2.106-.882,27.391,27.391,0,0,1-4.687-2.206,32.563,32.563,0,0,1,4-.551,1.594,1.594,0,0,0,.943-.551.783.783,0,0,0,0-1.02,1.18,1.18,0,0,0-.551-.226q-2.757-.618-5.575-1.053a32.282,32.282,0,0,1-5.134-1.02c-2.707-.882-4.411-2.873-6.341-4.852-2.112-2.167-4.124-4.411-6.065-6.738l9.021-21.224S211.67,98.482,208.29,93.9Z" transform="translate(-184.898 -57.474)" fill="#b16668"/>
          <path id="Path_2305" data-name="Path 2305" d="M212.741,93.64c-2.6.143-6.617.452-8.5,1.654-2.178,1.4-3,2.47-5.161,7.764s-6.413,16.371-6.413,16.371a14.485,14.485,0,0,0,12.489,5.608l7.168-16.542S215.664,99.716,212.741,93.64Z" transform="translate(-188.384 -57.357)" fill="#455a64"/>
        </g>
      </g>
      <g id="freepik--character-boy--inject-27" transform="translate(99.672 5.401)">
        <path id="Path_2306" data-name="Path 2306" d="M247.685,156.839c-.855-3.5,2.338-6.5,4.93-8.271,4-2.757,7.543-4.411,11.662-6.882,3.75-2.261,15.23-10.251,15.23-10.251s5.939-9.346,10-16.5c5.04-8.85,9-14.507,17.441-13.493l-.077,10.675s-18.009,24.471-19.117,25.789a7.7,7.7,0,0,1-3.457,2.757,160.521,160.521,0,0,0-16.862,8.591,8.271,8.271,0,0,0-3.308,3.86,16.393,16.393,0,0,1-2.139,3.59,17.057,17.057,0,0,1-1.356,1.533c-.325.32-.926.976-1.417.926a.75.75,0,0,1-.551-.4,1.511,1.511,0,0,1-.16-.695c-.033-1.472,1.048-2.757,1.2-4.229,0-.132-.171-.066-.2-.193a17.81,17.81,0,0,0-2.5,1.323,26.408,26.408,0,0,0-2.327,1.82c-.75.645-1.494,1.307-2.261,1.93a2.586,2.586,0,0,1-2.757.551A3.612,3.612,0,0,1,247.685,156.839Z" transform="translate(-247.544 -66.207)" fill="#ffbda7"/>
        <path id="Path_2307" data-name="Path 2307" d="M336.739,101.16c-2.7-.551-9.3-.48-12.291,3.535-3.154,4.229-12.908,20.253-12.908,20.253s2.492,5.349,9.787,7.168l12.522-17.06Z" transform="translate(-276.252 -66.022)" fill="#455a64"/>
        <path id="Path_2308" data-name="Path 2308" d="M398.66,390.154c.221.866.678,3.308,5.233,3.308s7.168-1.869,8.056-4.18.38-4.031.3-6.065,1.417-3.308,1.748-4.411c.491-1.6-.849-3.816-.849-3.816Z" transform="translate(-315.334 -188.971)" fill="#263238"/>
        <path id="Path_2309" data-name="Path 2309" d="M319.145,373.6a2.724,2.724,0,0,0,.21,2.206,9.479,9.479,0,0,0,7.168,2.206,17.419,17.419,0,0,0,7.764-2.707,10.091,10.091,0,0,1,5.966-1.483c2.244.006,3.777-.414,3.965-.981.325-.987.347-1.621-.127-1.6Z" transform="translate(-279.6 -187.284)" fill="#263238"/>
        <path id="Path_2310" data-name="Path 2310" d="M380.83,255.627a33.636,33.636,0,0,0-4.72-13.52s-2.206-32.533-4.08-49.626H338.35s1,44.327,1.544,50.828c.414,4.963,3.816,36.073,3.821,36.134l.491,5.189a6.034,6.034,0,0,0,6.964-.485l.48-4.593s2.757-19.724,2.928-24.427a38.218,38.218,0,0,0-1.318-11.916l4.086-22.095s3.264,15.616,5.112,24.361c2.112,10.019,14.336,42.828,14.336,42.839l.777,2.729c-.171,2.978,6.992.948,6.915-1.4C384.475,289.654,382.181,265.811,380.83,255.627Z" transform="translate(-288.279 -107.098)" fill="#ffbda7"/>
        <path id="Path_2311" data-name="Path 2311" d="M360.965,245.9c-1.842-8.745-3.783-24.813-3.783-24.813l-2.57,22.448c-9.231,3.992-15.588.16-15.588.16-1.654-16.63-.838-51.242-.838-51.242h33.68c1.864,17.094,5.178,49.257,5.178,49.257S374.419,247.254,360.965,245.9Z" transform="translate(-288.115 -107.084)" fill="#37474f"/>
        <path id="Path_2312" data-name="Path 2312" d="M363.837,232.55l-2.283-10.51a24.873,24.873,0,0,1-8.734-4.08s1.334,3.353,6.915,5.917l2.332,9.848-.623,19.718Z" transform="translate(-294.77 -118.528)" fill="#263238"/>
        <path id="Path_2313" data-name="Path 2313" d="M404.489,369.277l-.276-.9c-.3.3-.254.551-.265,1.362a19.818,19.818,0,0,1-.083,2.106,19.4,19.4,0,0,1-.607,3.281c-.59,2.492-1.252,3.5-3.005,6.578a24.021,24.021,0,0,0-1.72,2.757c-.3.811-.386,2.206.551,2.757,2.663,1.577,6.771,1.147,9.374-.077a5.6,5.6,0,0,0,3.275-5.078c0-.634-.132-1.263-.16-1.9a8.966,8.966,0,0,1,1.1-4.18,12.069,12.069,0,0,0,.959-2.332c.353-1.472-.342-2.956-.921-4.279-.5-1.141-1.075-2.669-1.467-2.492l.154,1a5.32,5.32,0,0,1-3.193,1.654C407.229,369.735,404.6,370.027,404.489,369.277Z" transform="translate(-315.185 -185.326)" fill="#455a64"/>
        <path id="Path_2314" data-name="Path 2314" d="M335.265,354.046c-.347,0-.7.27-1.318,1.174a10.913,10.913,0,0,1-3.22,3.088,46.546,46.546,0,0,1-9.633,4.632c-2.029.755-2.415,2.206-1.748,3.535,1.053,1.048,4.632,3.5,10.51,1.709,3.645-1.1,4.93-2.978,7.538-3.308,1.842-.237,5.04.27,6.92-1.252.6-1.423.116-2.856-.072-4.83s-.822-5.134-1.445-5.007l-.11,1.042c-.5,2.288-5.762,2.509-7.251,1.015Z" transform="translate(-279.619 -179.458)" fill="#455a64"/>
        <path id="Path_2315" data-name="Path 2315" d="M357.6,100.49c5.845.364,13.471.292,13.829,6.28.551,9.186-1.219,31.822-1.219,31.822l1.891,15.842c-4.284,4.577-23.771,6.97-34.711.259,0,0-.623-34.369.237-39.569,1.544-9.374,6.115-13.835,9.528-14.1Z" transform="translate(-287.752 -65.832)" fill="#00c736"/>
        <path id="Path_2316" data-name="Path 2316" d="M368.948,103.411c1.345-1.356,1.764-2.658.805-2.757-1.174-.083-2.354-.132-3.463-.2l-8.271.425s-1.88,1.9-1.323,3.479,2.371,2.371,4.6,2.283a11.971,11.971,0,0,0,7.654-3.226Z" transform="translate(-296.463 -65.814)" fill="#455a64"/>
        <path id="Path_2317" data-name="Path 2317" d="M337.531,128.59c-.2,2.173-.3,6.462-.331,11.431,10.659,3.623,26.076,1.682,33.746.336.232-4.031.452-7.3.551-11.425A82.329,82.329,0,0,1,337.531,128.59Z" transform="translate(-287.763 -78.437)" opacity="0.3"/>
        <path id="Path_2318" data-name="Path 2318" d="M385.073,101.92c3.755,0,6.677.237,9.3,3.463,1.836,2.25,15.478,19.045,17.094,21.841s1.726,3.893-.667,7.4c-1.985,2.906-13.046,19.3-16.625,23.01s-8.359,4.334-10.725,3.342-5.4-3.364.469-6.065c4.113-1.875,6.479-3.8,6.959-5.652l-.3-2.647h2.206l7.786-15.974-13.625-14.623S382.277,107.87,385.073,101.92Z" transform="translate(-307.2 -66.473)" fill="#ffbda7"/>
        <path id="Path_2319" data-name="Path 2319" d="M386,101.487s5.04-.088,6.937.579,3.463,2.206,6.137,5.514,10.052,12.726,10.052,12.726-.827,6.314-8.822,8.122L388.633,116.9S383.869,112.074,386,101.487Z" transform="translate(-309.409 -66.277)" fill="#455a64"/>
        <circle id="Ellipse_99" data-name="Ellipse 99" cx="9.341" cy="9.341" r="9.341" transform="translate(47.031 11.036) rotate(-36.21)" fill="#263238"/>
        <path id="Path_2320" data-name="Path 2320" d="M382.86,72.91s-1.412,7.135-2,8.321A3.187,3.187,0,0,1,379,82.747v-5Z" transform="translate(-306.514 -53.459)" fill="#263238"/>
        <path id="Path_2321" data-name="Path 2321" d="M381.613,54.474a3.5,3.5,0,0,1,2.917.97c1.268,1.257.634,5.255-.86,9.181L380.83,65Z" transform="translate(-307.335 -45.175)" fill="#263238"/>
        <path id="Path_2322" data-name="Path 2322" d="M362.736,61.6c.579.336,1.379-.777,2.073-1.527a2.478,2.478,0,0,1,4.163.612c1.186,2.4-.926,5.735-2.729,6.33-3.1,1.031-3.606-.965-3.606-.965l-.05,11.579h0c-3.8,5.04-14.579,4.786-10.173-.48l-.044-3.43a19.606,19.606,0,0,1-4.2.281c-2.3-.32-3.777-2.106-4.51-4.582-1.18-3.97-1.654-7.168-.833-15.053.91-8.618,10.912-8.867,16.371-5.547S362.736,61.6,362.736,61.6Z" transform="translate(-290.102 -41.767)" fill="#ffbda7"/>
        <path id="Path_2323" data-name="Path 2323" d="M361.665,60.295c.287,0,1.351-1.831,2.057-2.492.97-.91-.43-9.01-.43-9.01a3.948,3.948,0,0,0-.744-4.378c-1.373-1.467-3.308-3.248-9.374-2.432-4.362.584-9.093,2.024-12.964.2a6.54,6.54,0,0,0,2.354,6.887,13.218,13.218,0,0,0,5.067,1.263,53.38,53.38,0,0,0,10.129-.353c1.059-.16,1.3.866,1.919,3.661C360.22,56.121,360.7,60.289,361.665,60.295Z" transform="translate(-289.014 -39.493)" fill="#263238"/>
        <path id="Path_2324" data-name="Path 2324" d="M382.072,53.223l3.424-1.908a1.9,1.9,0,0,0-2.625-.827,2.062,2.062,0,0,0-.8,2.735Z" transform="translate(-307.788 -43.295)" fill="#263238"/>
        <path id="Path_2325" data-name="Path 2325" d="M361.818,71.023a1.026,1.026,0,1,0,1.009-1.1,1.037,1.037,0,0,0-1.009,1.1Z" transform="translate(-298.806 -52.118)" fill="#263238"/>
        <path id="Path_2326" data-name="Path 2326" d="M362.89,64.586,365.1,65.76a1.312,1.312,0,0,0-.551-1.737,1.224,1.224,0,0,0-1.654.562Z" transform="translate(-299.288 -49.414)" fill="#263238"/>
        <path id="Path_2327" data-name="Path 2327" d="M344.121,65.305l1.979-1.577a1.208,1.208,0,0,0-1.742-.237A1.323,1.323,0,0,0,344.121,65.305Z" transform="translate(-290.753 -49.113)" fill="#263238"/>
        <path id="Path_2328" data-name="Path 2328" d="M346.059,71.023a1.026,1.026,0,1,0,1.009-1.1,1.042,1.042,0,0,0-1.009,1.1Z" transform="translate(-291.736 -52.118)" fill="#263238"/>
        <path id="Path_2329" data-name="Path 2329" d="M360.47,92.114s5.034-.987,6.8-1.924a4.532,4.532,0,0,0,2-2.41,5.266,5.266,0,0,1-1.1,2.757c-1.3,1.654-7.676,3.11-7.676,3.11Z" transform="translate(-298.202 -60.13)" fill="#f0997a"/>
        <path id="Path_2330" data-name="Path 2330" d="M360.129,84.58,357.3,85.644a1.483,1.483,0,0,0,1.924.937,1.583,1.583,0,0,0,.9-2Z" transform="translate(-296.78 -58.694)" fill="#f0997a"/>
        <path id="Path_2331" data-name="Path 2331" d="M354.133,70.03l-.336,6.1-3.187-1.086Z" transform="translate(-293.779 -52.167)" fill="#f0997a"/>
      </g>
      <g id="freepik--character-girl--inject-27" transform="translate(0 8.634)">
        <path id="Path_2332" data-name="Path 2332" d="M132.754,78.893l-.59.061a14.844,14.844,0,0,1-16.338-13.19h0a14.336,14.336,0,0,1,12.743-15.743l1.654-.176a14.337,14.337,0,0,1,15.748,12.682h0a14.855,14.855,0,0,1-13.217,16.366Z" transform="translate(-88.748 -46.309)" fill="#263238"/>
        <path id="Path_2333" data-name="Path 2333" d="M132.75,48a99.907,99.907,0,0,1,11.971-3.992,13.074,13.074,0,0,1,4.963-.447,5.564,5.564,0,0,1,4.086,2.57,5.411,5.411,0,0,1-.695,5.751,5.486,5.486,0,0,1,.375,10.372,9.374,9.374,0,0,1-4.455.3,23.109,23.109,0,0,1-8.938-2.8,14.888,14.888,0,0,1-6.28-6.821" transform="translate(-96.375 -43.497)" fill="#263238"/>
        <path id="Path_2334" data-name="Path 2334" d="M121.293,283.341c-1.56-1.776-1.82-3.457-1.516-6.672s3.584-31.193,4.411-38.2c1.412-11.767,1.9-45.353,1.136-53.563l-31.518,1.654c-2.432,5.652-4.3,12.638-4.229,23.71.05,8.42-.744,31.243-.744,31.243a28.622,28.622,0,0,0-6.843,9.809c-2.575,5.79-5.895,25.916-5.895,25.916h0a18.362,18.362,0,0,1-.97,2.559,4.963,4.963,0,0,0-1.208,2.922,49.362,49.362,0,0,0,.833,10.427,4.848,4.848,0,0,0,3.154,3.694,2.861,2.861,0,0,0,1.23.237.927.927,0,0,0,.6-.21c.309-.292.055-1,0-1.362a12.98,12.98,0,0,1-.11-1.731c0-1.136.066-2.525.171-3.656a37.353,37.353,0,0,1,1.423-7.5l.645-1.439h0S96.237,254.006,100.29,247.4c3.22-5.189,5.8-25.574,8.271-36.69l2.989,26.8a51.829,51.829,0,0,0-2.266,8.464c-.7,4.963,2.288,24.449,3.154,31.38a13.785,13.785,0,0,1-.055,3.86h0c.292,3.005,2.514,3.987,4.792,5.74,1.136.871,6.132,4.091,9.181,4.792,2.481.551,3.457-.369,3.827-1.064A52.237,52.237,0,0,1,121.293,283.341Z" transform="translate(-69.975 -106.934)" fill="#ffa8a7"/>
        <path id="Path_2335" data-name="Path 2335" d="M67.9,364.05a2.206,2.206,0,0,0-1.042,1.483,9.534,9.534,0,0,0,.414,3.86,27.572,27.572,0,0,1,.165,6.507,8.652,8.652,0,0,0,1.654,5.729,7.465,7.465,0,0,0,5.762,2.674,9.5,9.5,0,0,0,4.963-.777c.987-.518,1.412-3.165-.221-3.777s-7.234-1.654-8.442-6.843A38.538,38.538,0,0,0,67.9,364.05Z" transform="translate(-66.783 -187.296)" fill="#263238"/>
        <path id="Path_2336" data-name="Path 2336" d="M72.4,356.962a5.723,5.723,0,0,1,.287,1.88,11.724,11.724,0,0,1,.182,1.6c0,.474.083,1.042.518,1.224a.959.959,0,0,0,1-.3,10.414,10.414,0,0,0,.651-.9,2.641,2.641,0,0,1,4.1-.116l-.193.441a19.762,19.762,0,0,0-.959,11.861,3.441,3.441,0,0,0,1.191,1.957,13.458,13.458,0,0,1,1.467,1.329,2.3,2.3,0,0,1,.612,1.825,2.035,2.035,0,0,1-.811,1.224,4.462,4.462,0,0,1-1.345.645,9.567,9.567,0,0,1-7.041-.414,6.512,6.512,0,0,1-2.327-2.073c-1.246-2.31-1.042-4.477-1.009-6.44a41.294,41.294,0,0,0-.871-8.767C67.5,359.278,71.591,356.521,72.4,356.962Z" transform="translate(-67.253 -184.095)" fill="#455a64"/>
        <path id="Path_2337" data-name="Path 2337" d="M141.356,371.07c-.154,1.02-.259,1.472.993,2.415a21.373,21.373,0,0,0,4.687,2.206,18.6,18.6,0,0,1,4.522,3.138,13.166,13.166,0,0,0,7.323,2.283c2.878-.094,4.549-.744,5.244-1.362s1.417-2.8-.425-3.4S141.356,371.07,141.356,371.07Z" transform="translate(-100.196 -190.445)" fill="#263238"/>
        <path id="Path_2338" data-name="Path 2338" d="M142.692,356.853a.551.551,0,0,0-.4.369c-.265.811-.276,1.742-.469,2.575a13.452,13.452,0,0,0-.436,4.24c.187,1.059,1.583,2.117,4.235,2.945a18.493,18.493,0,0,1,5.713,3.193,13.529,13.529,0,0,0,7.3,2.944c2.724.154,5.586-.5,6.292-2.443.3-.822.143-2.1-3.308-3.86,0,0-2.63-1.412-3.617-2.062a33.34,33.34,0,0,1-4.874-3.772,13.96,13.96,0,0,1-1.5-1.7,6.349,6.349,0,0,1-.634-.9,7.946,7.946,0,0,1-.4-1.814,1.334,1.334,0,0,0-.2-.551,1.141,1.141,0,0,0-.551-.358,3.275,3.275,0,0,0-4.411,3.358c-.187.094-.419-.083-.48-.287a4.836,4.836,0,0,1-.05-.634,1.318,1.318,0,0,0-.871-.981A2.564,2.564,0,0,0,142.692,356.853Z" transform="translate(-100.225 -183.434)" fill="#455a64"/>
        <path id="Path_2339" data-name="Path 2339" d="M111.639,211.552c.4-3,1.373-7.08,1.373-7.08l.827,6.97,1.776,18.1a48.091,48.091,0,0,0-1.555,5.15c-.9,3.5-.8,9.374-.248,13.234s1.731,10.774,1.731,10.774a9.9,9.9,0,0,0,10.03.188s1.307-7.786,2.663-19.012,1.985-22.359,2.3-31.706c0,0,1.45-23.253-2.073-39.089-4.714,3.137-18.483,3.43-23.914-1.1,0,0-2.321,3.617-7.389,11.7-3.981,6.341-3.132,16.719-3.424,25.365-.452,13.344-.772,28.414-.772,28.414a42.739,42.739,0,0,0-4.874,6.22c-2.536,3.86-4.014,12.528-4.014,12.528s2.321,5.288,10.7,5.735c0,0,8.536-14.623,10.67-17.937S111.242,214.546,111.639,211.552Z" transform="translate(-74.542 -99.34)" fill="#37474f"/>
        <path id="Path_2340" data-name="Path 2340" d="M136.55,221.626l3.369-11.7a24.282,24.282,0,0,0,10.532-3.705s-1.053,4.284-9.159,5.338l-3.783,11.475v7.1Z" transform="translate(-98.08 -116.494)" fill="#263238"/>
        <path id="Path_2341" data-name="Path 2341" d="M141.6,123.085c-2.933-4.808-8.916-9.473-10.857-11.094l-11.53-.221c-2.266.061-5.591.265-5.591.265-2.432,1.219-2.393,4.2-2.547,7.014a37.953,37.953,0,0,0,.491,9.567l1.379,6.545.21,1c.039.171.072.347.11.551a10.67,10.67,0,0,1-1.1,7.367c-2.757,4.963-5.994,8.7-6.986,12.9a9.164,9.164,0,0,0,4.042-2.206,26.3,26.3,0,0,0,4.2-4.2s.061,2.867,2.807,6.7a16.172,16.172,0,0,0,2.421,2.685c5,4.411,20.325,6.672,21.179-6.722,0,0-1.472-8.5-1.682-11.353.5-2.443,1.891-6.661,1.946-7.6C143.675,131.2,143.735,126.586,141.6,123.085Z" transform="translate(-84.003 -74.124)" fill="#00c736"/>
        <path id="Path_2342" data-name="Path 2342" d="M130.029,114.111c1.1,1.334,3.8,4.306,6.319,4.819,2.961.6,6.01.347,6.766-1.478s-.695-4.031-2.029-5.448l-11.16-.215h-.811C129.075,111.994,128.783,112.562,130.029,114.111Z" transform="translate(-94.719 -74.133)" fill="#455a64"/>
        <path id="Path_2343" data-name="Path 2343" d="M116.16,137.375c.088.739.193,1.583.331,2.559l1.379,6.545.21,1c.039.171.072.347.11.551a11.7,11.7,0,0,1,.21,2.481,37.8,37.8,0,0,0,25.326,0c.551-2.1,1.241-4.279,1.279-4.924A8.172,8.172,0,0,0,147.645,137c-2.625,1.351-6.507,2.161-10.521,2.536a53.856,53.856,0,0,1-20.964-2.161Z" transform="translate(-88.933 -85.442)" opacity="0.3"/>
        <path id="Path_2344" data-name="Path 2344" d="M147.09,148.44s-3.86,3.248-8.486,1.809a7.808,7.808,0,0,1-5.426-5.4,6.884,6.884,0,0,0,5.514,6.782A7.542,7.542,0,0,0,147.09,148.44Z" transform="translate(-96.566 -88.963)" opacity="0.1"/>
        <path id="Path_2345" data-name="Path 2345" d="M208.24,186.224a.871.871,0,0,0-.408-.27c-5.768-2.277-12.219-.215-17.242-.838l.077,1.72a13.452,13.452,0,0,0,8.133,1.527c2.8-.221,5.542-.877,8.337-1.13a1.737,1.737,0,0,0,.871-.221A.6.6,0,0,0,208.24,186.224Z" transform="translate(-122.322 -106.908)" fill="#f28f8f"/>
        <path id="Path_2346" data-name="Path 2346" d="M130.773,154.878c-1.439-.331-4.191-1.494-5.167-2.79-1.753-2.332-16.393-24.56-17.292-30.669-.722-4.919,1.588-9.264,6.655-9.17,3.264,2.371,6.479,11.42,6.479,11.42l11.579,21.257c4.086,1.908,18.384,6.617,20.9,7.389s7.659.21,11.089,1.3,12.1,4.692,10.35,6.319a8.159,8.159,0,0,1-5.194,2.636c-2.961.21-3.308-.959-6.28-1.031s-5.448.822-8.58-.4c-1.98-.772-2.068-1.224-4.825-1.891S132.637,155.3,130.773,154.878Z" transform="translate(-85.356 -74.338)" fill="#ffa8a7"/>
        <path id="Path_2347" data-name="Path 2347" d="M115.644,111.968a7.813,7.813,0,0,0-8.216,3.226c-2.15,3.286-.259,7.846,1.1,10.9s5.823,10.091,5.823,10.091,9.666-.7,11.491-5.547C125.845,130.617,119.951,118.028,115.644,111.968Z" transform="translate(-84.58 -74.145)" fill="#455a64"/>
        <path id="Path_2348" data-name="Path 2348" d="M143.842,62.42c1.6,1.042,3.441,5.26,2.856,13.9-.5,7.323-2.95,9.026-4.169,9.5s-3.5.05-5.724-.419l-.2,4.411s2.757,2.31,2.465,4.317-4.8,2.564-7.609.463a18.94,18.94,0,0,1-4.113-4.031l.507-11.4s-1.533,1.577-3.932-.176a4.224,4.224,0,0,1-.551-6.352,2.933,2.933,0,0,1,4.687,1.527s3.187-.055,7.9-2.757C141.09,68.5,142.43,65.442,143.842,62.42Z" transform="translate(-91.636 -51.986)" fill="#ffa8a7"/>
        <path id="Path_2349" data-name="Path 2349" d="M148.062,82.424a.921.921,0,1,1-.926-.954.932.932,0,0,1,.926.954Z" transform="translate(-102.418 -60.531)" fill="#263238"/>
        <path id="Path_2350" data-name="Path 2350" d="M150.935,94.85l2.614.959a1.367,1.367,0,0,1-1.764.877A1.461,1.461,0,0,1,150.935,94.85Z" transform="translate(-104.497 -66.534)" fill="#f28f8f"/>
        <path id="Path_2351" data-name="Path 2351" d="M162.929,77.5,161.12,76.12a1.1,1.1,0,0,1,1.56-.248,1.2,1.2,0,0,1,.248,1.627Z" transform="translate(-109.102 -57.922)" fill="#263238"/>
        <path id="Path_2352" data-name="Path 2352" d="M161.879,82.15a.932.932,0,0,1-.915.959.959.959,0,1,1,.915-.959Z" transform="translate(-108.582 -60.407)" fill="#263238"/>
        <path id="Path_2353" data-name="Path 2353" d="M155.235,81.61l-.1,5.553,2.961-.772Z" transform="translate(-106.415 -60.594)" fill="#f28f8f"/>
        <path id="Path_2354" data-name="Path 2354" d="M142.352,100.856c-2.343-.419-7.135-2.024-7.8-3.976a4.963,4.963,0,0,0,1.588,2.52c1.4,1.307,6.148,2.922,6.148,2.922Z" transform="translate(-97.183 -67.444)" fill="#f28f8f"/>
      </g>
      <path id="freepik--Hand--inject-27" d="M207.039,97.584c-.215-4.141.959-5.354,2.437-6.347s6.942-2.41,8.073-2.013,7.052,3.308,6.771,6.181-2.978,3.59-5.961,2.906-8.111-4.058-9.208-3.579S207.039,97.584,207.039,97.584Z" transform="translate(-129.69 -55.346)" fill="#ffa8a7"/>
      <path id="freepik--hand--inject-27-2" data-name="freepik--hand--inject-27" d="M331.34,105.461c1.064-.48,2.641.215,5.067-.287s4.047-1.5,5.47-1.616,2.024-.551.579-1.351-3.965-.463-4.466-.656a8.939,8.939,0,0,1,2.492-1.1,61.089,61.089,0,0,1,6.253-.777c.116,0,.882-1.241-2.7-1.737s-8.822.27-10.785,1.312S331.34,105.461,331.34,105.461Z" transform="translate(-185.462 -59.214)" fill="#b16668"/>
    </g>
    <g id="freepik--Stars--inject-27" transform="translate(36.851 51.052)">
      <g id="freepik--stars--inject-27-2" data-name="freepik--stars--inject-27">
        <path id="Path_2355" data-name="Path 2355" d="M74.857,91.025a1.1,1.1,0,1,1-.392-.781A1.1,1.1,0,0,1,74.857,91.025Z" transform="translate(-62.171 -78.93)" fill="#00c736"/>
        <path id="Path_2356" data-name="Path 2356" d="M79.171,75.275l1.709,1.4L83,76.058a.248.248,0,0,1,.3.331l-.8,2.057,1.241,1.825a.248.248,0,0,1-.221.392l-2.206-.121-1.351,1.742a.254.254,0,0,1-.441-.088l-.562-2.145-2.1-.739a.254.254,0,0,1-.055-.447l1.858-1.2.072-2.206a.248.248,0,0,1,.43-.187Z" transform="translate(-63.987 -72.295)" fill="#00c736"/>
        <path id="Path_2357" data-name="Path 2357" d="M437.088,93.267a1.345,1.345,0,1,1-1.245.624A1.345,1.345,0,0,1,437.088,93.267Z" transform="translate(-225.004 -80.4)" fill="#00c736"/>
        <path id="Path_2358" data-name="Path 2358" d="M411.964,76.825l2.7-2.647-.645-3.722a.43.43,0,0,1,.623-.458L418,71.752l3.341-1.764a.43.43,0,0,1,.629.452l-.662,3.727,2.757,2.636a.43.43,0,0,1-.237.733l-3.739.551-1.654,3.391a.43.43,0,0,1-.772,0l-1.654-3.391-3.744-.551a.43.43,0,0,1-.3-.711Z" transform="translate(-214.338 -69.936)" fill="#00c736"/>
        <path id="Path_2359" data-name="Path 2359" d="M449.945,176.825l.811,1.8,1.941.358a.226.226,0,0,1,.11.386l-1.461,1.323.259,1.952a.221.221,0,0,1-.331.226l-1.715-.981-1.776.855a.221.221,0,0,1-.314-.248l.4-1.93-1.362-1.423a.226.226,0,0,1,.138-.38l1.957-.215.937-1.731a.226.226,0,0,1,.4.011Z" transform="translate(-229.854 -117.828)" fill="#00c736"/>
        <path id="Path_2360" data-name="Path 2360" d="M57.38,152.315l3.077,2.161L64,153.147a.43.43,0,0,1,.551.551l-1.1,3.623,2.36,2.956a.43.43,0,0,1-.325.7l-3.783.072-2.084,3.16a.43.43,0,0,1-.766-.1l-1.235-3.573-3.65-1a.43.43,0,0,1-.143-.761l3.016-2.283-.171-3.777a.43.43,0,0,1,.717-.4Z" transform="translate(-53.644 -106.838)" fill="#00c736"/>
        <path id="Path_2361" data-name="Path 2361" d="M442.127,189.612a.787.787,0,1,1-.9-.651.777.777,0,0,1,.9.651Z" transform="translate(-227.214 -123.325)" fill="#00c736"/>
        <path id="Path_2362" data-name="Path 2362" d="M79.547,158.248a.9.9,0,1,1-.367-.587A.9.9,0,0,1,79.547,158.248Z" transform="translate(-64.463 -109.215)" fill="#00c736"/>
      </g>
    </g>
  </g>
</svg>
