<svg xmlns="http://www.w3.org/2000/svg" width="192.746" height="153.525" viewBox="0 0 192.746 153.525">
  <g id="freepik--Shield--inject-5" transform="translate(-23.37 -36.446)">
    <path id="Path_340" data-name="Path 340" d="M154.912,61.69,110.378,45.28,66.285,61.47C60.648,64.2,55.72,65.823,55.72,71.252V97.994a103.117,103.117,0,0,0,14.527,53.325A91.183,91.183,0,0,0,110.819,188c18.024-6,31.474-22.01,39.7-35.717a103.2,103.2,0,0,0,14.527-53.3V74.945C165.049,67.278,161.087,63.536,154.912,61.69Z" transform="translate(7.207 1.968)" fill="#2166c4"/>
    <g id="Group_4107" data-name="Group 4107" transform="translate(62.925 47.248)" opacity="0.8">
      <path id="Path_341" data-name="Path 341" d="M154.912,61.69,110.378,45.28,66.285,61.47C60.648,64.2,55.72,65.823,55.72,71.252V97.994a103.117,103.117,0,0,0,14.527,53.325A91.183,91.183,0,0,0,110.819,188c18.024-6,31.474-22.01,39.7-35.717a103.2,103.2,0,0,0,14.527-53.3V74.945C165.049,67.278,161.087,63.536,154.912,61.69Z" transform="translate(-55.719 -45.28)" fill="#fff"/>
    </g>
    <path id="Path_342" data-name="Path 342" d="M144.141,69.987,108.411,56.83,73.036,69.8c-4.524,2.189-8.486,3.5-8.486,7.814v21.5a82.733,82.733,0,0,0,11.665,42.8,73.11,73.11,0,0,0,32.55,29.493c14.453-4.818,25.25-17.669,31.853-28.65a82.843,82.843,0,0,0,11.653-42.8V80.625C152.272,74.475,149.093,71.467,144.141,69.987Z" transform="translate(9.174 4.541)" fill="#00c736"/>
    <path id="Path_343" data-name="Path 343" d="M132.4,101.62H111.388V80.6H99.32v21.02H78.3v12.069H99.32V134.7h12.069V113.688H132.4Z" transform="translate(12.237 9.837)" fill="#fff"/>
    <path id="Path_344" data-name="Path 344" d="M179.593,170.409s.2-.293.611-.844l.355-.452c.122-.183.22-.391.355-.611a9.44,9.44,0,0,0,.795-1.577c.122-.318.269-.636.391-.99s.208-.746.318-1.137a8.365,8.365,0,0,0,.257-1.223,12.227,12.227,0,0,0,.2-1.406,26.449,26.449,0,0,0-.306-6.738,60.7,60.7,0,0,0-6.212-17.5,136.158,136.158,0,0,0-13.3-20.689,211.735,211.735,0,0,0-19.833-22.279A243.662,243.662,0,0,0,117.182,72.77c-4.891-3.583-9.99-7.043-15.395-10.308A147.957,147.957,0,0,0,84.669,53.5a79.48,79.48,0,0,0-19.026-5.967,33.6,33.6,0,0,0-10.149-.245A18.623,18.623,0,0,0,50.6,48.706a12.228,12.228,0,0,0-6.64,7.434,18.99,18.99,0,0,0-.856,5.026A33.651,33.651,0,0,0,44.513,71.23,79.59,79.59,0,0,0,52.6,89.461a150.588,150.588,0,0,0,10.858,15.969c3.864,5,7.887,9.7,12,14.123a243.838,243.838,0,0,0,25.091,23.318A211.659,211.659,0,0,0,125,159.991a135.728,135.728,0,0,0,22.01,10.858,60.626,60.626,0,0,0,18.036,4.17,26.18,26.18,0,0,0,6.738-.465,11.2,11.2,0,0,0,1.369-.342,7.335,7.335,0,0,0,1.223-.416l1.1-.44c.33-.159.636-.342.929-.5a8.389,8.389,0,0,0,1.48-.966c.208-.147.4-.281.562-.416l.416-.4c.5-.477.77-.709.77-.709l-.734.734-.416.416c-.159.134-.355.269-.562.428a9.108,9.108,0,0,1-1.565,1.1l-.929.514-1.1.452a7.707,7.707,0,0,1-1.223.416,14.2,14.2,0,0,1-1.382.367,26.817,26.817,0,0,1-6.762.5,60.7,60.7,0,0,1-18.109-4.121,135.816,135.816,0,0,1-22.132-10.822,212.952,212.952,0,0,1-24.456-17.119,242.957,242.957,0,0,1-25.116-23.355c-4.109-4.439-8.144-9.134-12.02-14.148A148.883,148.883,0,0,1,52.228,89.718,80.288,80.288,0,0,1,44.1,71.376,33.858,33.858,0,0,1,42.691,61.2a19.491,19.491,0,0,1,.868-5.148,14.282,14.282,0,0,1,2.617-4.561,14.135,14.135,0,0,1,4.231-3.179,19.565,19.565,0,0,1,5-1.455,33.981,33.981,0,0,1,10.271.257A80.446,80.446,0,0,1,84.8,53.108a149.56,149.56,0,0,1,17.119,9c5.417,3.277,10.553,6.75,15.419,10.332A244.337,244.337,0,0,1,143.46,94.78a213,213,0,0,1,19.821,22.352A134.746,134.746,0,0,1,176.56,137.92a60.419,60.419,0,0,1,6.114,17.522,26.632,26.632,0,0,1,.281,6.774,9.711,9.711,0,0,1-.208,1.406,9.918,9.918,0,0,1-.269,1.284c-.122.391-.232.783-.33,1.137a9.276,9.276,0,0,1-.4.99,10.062,10.062,0,0,1-.819,1.59c-.135.22-.245.428-.355.6l-.367.452Z" transform="translate(4.303 2.259)" fill="#00c736"/>
    <path id="Path_345" data-name="Path 345" d="M207.321,105.213a8.248,8.248,0,0,0-.1-1.039V103.6a4.071,4.071,0,0,0-.147-.685,9.55,9.55,0,0,0-.465-1.712c-.11-.306-.22-.648-.367-1l-.514-1.052a7.689,7.689,0,0,0-.66-1.125,10.869,10.869,0,0,0-.783-1.223,25.935,25.935,0,0,0-4.72-4.891,60.442,60.442,0,0,0-16.238-8.89,136.4,136.4,0,0,0-23.7-6.591,213.03,213.03,0,0,0-29.677-3.314,242.751,242.751,0,0,0-34.238.746c-6.016.575-12.142,1.406-18.342,2.568a149.277,149.277,0,0,0-18.733,4.683,80.08,80.08,0,0,0-18.158,8.217A33.431,33.431,0,0,0,32.733,95.9a18.941,18.941,0,0,0-2.715,4.329,12.228,12.228,0,0,0,0,9.966,18.94,18.94,0,0,0,2.715,4.329,33.785,33.785,0,0,0,7.74,6.579,79.921,79.921,0,0,0,18.17,8.266,150.96,150.96,0,0,0,18.733,4.7c6.212,1.223,12.338,1.981,18.342,2.556a242.916,242.916,0,0,0,34.238.746,211,211,0,0,0,29.628-3.424,137.7,137.7,0,0,0,23.71-6.579,60.54,60.54,0,0,0,16.238-9,25.934,25.934,0,0,0,4.72-4.891,13.247,13.247,0,0,0,.795-1.223,8.838,8.838,0,0,0,.648-1.125l.526-1.052c.135-.355.245-.685.355-1a9.552,9.552,0,0,0,.465-1.712,3.758,3.758,0,0,1,.147-.685,3,3,0,0,0,0-.575c.061-.685.1-1.039.1-1.039v1.626a3.967,3.967,0,0,1-.135.685,8.558,8.558,0,0,1-.452,1.724c-.11.318-.208.66-.355,1.015s-.33.7-.514,1.064a8.191,8.191,0,0,1-.648,1.137,13.2,13.2,0,0,1-.783,1.223,26.449,26.449,0,0,1-4.72,4.891,60.528,60.528,0,0,1-16.251,8.987,136.488,136.488,0,0,1-23.722,6.652,211.433,211.433,0,0,1-29.677,3.473,243.329,243.329,0,0,1-34.238-.709c-6.016-.562-12.167-1.394-18.342-2.556a147.957,147.957,0,0,1-18.782-4.7A80.166,80.166,0,0,1,40.4,121.317a33.834,33.834,0,0,1-7.826-6.652,19.565,19.565,0,0,1-2.776-4.426,14.209,14.209,0,0,1-1.088-5.148,13.964,13.964,0,0,1,1.1-5.136,19.112,19.112,0,0,1,2.776-4.426,34.079,34.079,0,0,1,7.679-6.517,80.324,80.324,0,0,1,18.256-8.254A149,149,0,0,1,77.3,76.05c6.224-1.223,12.374-1.981,18.342-2.556a243.33,243.33,0,0,1,34.238-.709,209.368,209.368,0,0,1,29.665,3.485A135.572,135.572,0,0,1,183.379,82.9a60.527,60.527,0,0,1,16.251,8.975,26.449,26.449,0,0,1,4.72,4.891,13.2,13.2,0,0,1,.783,1.223,9.9,9.9,0,0,1,.648,1.137l.514,1.076c.147.342.245.685.355,1a8.828,8.828,0,0,1,.452,1.724,4.138,4.138,0,0,0,.134.7v.575C207.309,104.907,207.321,105.213,207.321,105.213Z" transform="translate(1.19 8.028)" fill="#00c736"/>
    <path id="Path_346" data-name="Path 346" d="M169.118,39.276l-.868-.562-.477-.367c-.183-.11-.4-.2-.624-.306a10.025,10.025,0,0,0-1.639-.685l-1.015-.33-1.162-.232a8.144,8.144,0,0,0-1.284-.171,12.913,12.913,0,0,0-1.406-.1,26.608,26.608,0,0,0-6.713.77,60.5,60.5,0,0,0-16.972,7.337A136.058,136.058,0,0,0,117.235,59.3,210.465,210.465,0,0,0,96.362,80.752a241.193,241.193,0,0,0-20.384,27.512c-3.228,5.1-6.334,10.455-9.22,16.067a147.787,147.787,0,0,0-7.814,17.681A79.652,79.652,0,0,0,54.3,161.406a33.626,33.626,0,0,0,.452,10.137,19.271,19.271,0,0,0,1.749,4.793,12.313,12.313,0,0,0,7.875,6.114,18.734,18.734,0,0,0,5.087.5,33.528,33.528,0,0,0,9.929-2.079,79.86,79.86,0,0,0,17.632-9.33,146.531,146.531,0,0,0,15.187-11.934c4.732-4.194,9.134-8.559,13.267-12.937a241.931,241.931,0,0,0,21.57-26.6,211.781,211.781,0,0,0,15.5-25.483,136.634,136.634,0,0,0,9.318-22.768,60.918,60.918,0,0,0,2.91-18.281,26.412,26.412,0,0,0-.929-6.689c-.1-.477-.306-.9-.44-1.345a8.768,8.768,0,0,0-.489-1.223q-.269-.55-.514-1.064c-.2-.318-.391-.611-.575-.893a8.913,8.913,0,0,0-1.064-1.418c-.159-.183-.306-.379-.452-.526L169.888,40l-.77-.709s.281.22.795.685l.44.379c.147.147.293.33.465.526a9.55,9.55,0,0,1,1.088,1.406c.183.281.391.575.575.9s.342.685.526,1.064a7.043,7.043,0,0,1,.5,1.223c.147.44.355.868.465,1.345a26.62,26.62,0,0,1,.966,6.725,60.674,60.674,0,0,1-2.861,18.342A135.253,135.253,0,0,1,162.8,94.716a209.425,209.425,0,0,1-15.431,25.556,239.665,239.665,0,0,1-21.57,26.669c-4.133,4.414-8.559,8.767-13.279,12.974a148.868,148.868,0,0,1-15.224,11.959,79.333,79.333,0,0,1-17.718,9.379,33.738,33.738,0,0,1-10.051,2.115,19.638,19.638,0,0,1-5.2-.514,14.417,14.417,0,0,1-4.732-2.3,14.2,14.2,0,0,1-3.387-4.035,19.382,19.382,0,0,1-1.8-4.891,33.675,33.675,0,0,1-.452-10.259,80.165,80.165,0,0,1,4.659-19.491,149.589,149.589,0,0,1,7.8-17.718c2.9-5.637,6-11,9.244-16.092A242.107,242.107,0,0,1,96.106,80.532a210.769,210.769,0,0,1,20.934-21.325,134.5,134.5,0,0,1,19.8-14.673A60.1,60.1,0,0,1,153.955,37.2a26.119,26.119,0,0,1,6.737-.746,12.838,12.838,0,0,1,1.418.11,8.486,8.486,0,0,1,1.3.183l1.223.245c.367.11.7.232,1.015.342a9.989,9.989,0,0,1,1.639.7c.22.122.44.208.624.318l.477.33Z" transform="translate(6.769 0)" fill="#00c736"/>
    <path id="Path_347" data-name="Path 347" d="M29.031,129.569a3.3,3.3,0,1,1-2.348-.98,3.314,3.314,0,0,1,2.348.98Z" transform="translate(0 20.527)" fill="#00c736"/>
    <path id="Path_348" data-name="Path 348" d="M182.207,45.964a3.314,3.314,0,1,1-3.314-3.314,3.314,3.314,0,0,1,3.314,3.314Z" transform="translate(33.909 1.382)" fill="#00c736"/>
    <path id="Path_349" data-name="Path 349" d="M45.387,138.454a.844.844,0,1,1-.844-.844A.844.844,0,0,1,45.387,138.454Z" transform="translate(4.529 22.537)" fill="#00c736"/>
    <path id="Path_350" data-name="Path 350" d="M60.1,62.474a.844.844,0,1,1-.844-.844A.844.844,0,0,1,60.1,62.474Z" transform="translate(7.806 5.61)" fill="#00c736"/>
    <path id="Path_351" data-name="Path 351" d="M167.637,99.4a.844.844,0,1,1-.844-.844A.844.844,0,0,1,167.637,99.4Z" transform="translate(31.764 13.838)" fill="#00c736"/>
    <path id="Path_352" data-name="Path 352" d="M177.207,67.271a.844.844,0,1,1-.844-.831.831.831,0,0,1,.844.831Z" transform="translate(33.895 6.682)" fill="#00c736"/>
  </g>
</svg>
